<svg width="695" height="335" viewBox="0 0 695 335" fill="none" xmlns="http://www.w3.org/2000/svg">
<g clip-path="url(#clip0_1_8)">
<path d="M508.503 333.5L509.497 156.486L577.799 154.506L613.497 190.204L611.507 333.5H508.503Z" stroke="#0F1011"/>
<path d="M586.404 185.553L578.923 155.63L612.586 189.293L586.404 185.553ZM592.478 200.513L591.52 223.5H509.5V202.488L592.478 200.513Z" stroke="#0F1011"/>
<g opacity="0.5">
<mask id="mask0_1_8" style="mask-type:luminance" maskUnits="userSpaceOnUse" x="510" y="235" width="78" height="6">
<path d="M511 236H587V240H511V236Z" stroke="#A9A9A9" stroke-width="1.014"/>
</mask>
<g mask="url(#mask0_1_8)">
<path d="M511 239H515L537 237C544 237 550 239 557 238L568 236L586 238" stroke="#0F1011" stroke-width="1.014"/>
</g>
</g>
<g opacity="0.5">
<mask id="mask1_1_8" style="mask-type:luminance" maskUnits="userSpaceOnUse" x="508" y="245" width="79" height="6">
<path d="M509 246H586V250H509V246Z" stroke="#A9A9A9" stroke-width="1.014"/>
</mask>
<g mask="url(#mask1_1_8)">
<path d="M510 248H524C544 251 565 246 585 247" stroke="#0F1011" stroke-width="1.014"/>
</g>
</g>
<path opacity="0.5" d="M509 258H586" stroke="#0F1011" stroke-width="1.014"/>
<g opacity="0.5">
<mask id="mask2_1_8" style="mask-type:luminance" maskUnits="userSpaceOnUse" x="509" y="266" width="72" height="5">
<path d="M510 267H580V270H510V267Z" stroke="#A9A9A9" stroke-width="1.014"/>
</mask>
<g mask="url(#mask2_1_8)">
<path d="M511 270L547 267H557L567 269L579 268" stroke="#0F1011" stroke-width="1.014"/>
</g>
</g>
<g opacity="0.5">
<mask id="mask3_1_8" style="mask-type:luminance" maskUnits="userSpaceOnUse" x="507" y="276" width="33" height="4">
<path d="M508 277H539V279H508V277Z" stroke="#A9A9A9" stroke-width="1.014"/>
</mask>
<g mask="url(#mask3_1_8)">
<path d="M509 278L524 277L539 279" stroke="#0F1011" stroke-width="1.014"/>
</g>
</g>
<path d="M217 57C217 58.8565 216.263 60.637 214.95 61.9497C213.637 63.2625 211.857 64 210 64C208.143 64 206.363 63.2625 205.05 61.9497C203.737 60.637 203 58.8565 203 57C203 55.1435 203.737 53.363 205.05 52.0503C206.363 50.7375 208.143 50 210 50C211.857 50 213.637 50.7375 214.95 52.0503C216.263 53.363 217 55.1435 217 57Z" fill="#E7655B"/>
<path d="M240 57C240 58.8565 239.263 60.637 237.95 61.9497C236.637 63.2625 234.857 64 233 64C231.938 64.4245 230.788 64.5823 229.651 64.4596C228.514 64.3369 227.424 63.9373 226.477 63.296C225.53 62.6546 224.754 61.791 224.218 60.7805C223.682 59.7701 223.402 58.6438 223.402 57.5C223.402 56.3562 223.682 55.2299 224.218 54.2195C224.754 53.2091 225.53 52.3454 226.477 51.704C227.424 51.0627 228.514 50.6632 229.651 50.5404C230.788 50.4177 231.938 50.5755 233 51C234.696 50.9826 236.34 51.5813 237.627 52.6848C238.915 53.7884 239.758 55.3217 240 57Z" fill="#F4BF12"/>
<path d="M261 57C261 58.8565 260.262 60.637 258.95 61.9497C257.637 63.2625 255.857 64 254 64C252.143 64 250.363 63.2625 249.05 61.9497C247.737 60.637 247 58.8565 247 57C247 55.1435 247.737 53.363 249.05 52.0503C250.363 50.7375 252.143 50 254 50C255.857 50 257.637 50.7375 258.95 52.0503C260.262 53.363 261 55.1435 261 57Z" fill="#00C6B6"/>
<path fill-rule="evenodd" clip-rule="evenodd" d="M454 65L306 64C303 64 301 61 301 58L302 51C302 49.6739 302.527 48.4021 303.464 47.4645C304.402 46.5268 305.674 46 307 46L453 45C454.326 45 455.598 45.5268 456.536 46.4645C457.473 47.4021 458 48.6739 458 50L459 59C459.15 59.7349 459.133 60.4941 458.95 61.2215C458.767 61.9489 458.422 62.6257 457.942 63.2019C457.462 63.7782 456.858 64.239 456.176 64.5502C455.494 64.8615 454.75 65.0152 454 65Z" stroke="#0F1011" stroke-width="1.014"/>
<path d="M478 334V45C478 38 473 33 466 33L199 30C193 30 187 35 188 42L189 334M188 79L478 76" stroke="#0F1011" stroke-width="1.014"/>
<path d="M493 334V30C493 23 487 18 481 18L214 15C208 15 202 21 202 27V30M478 61H493" stroke="#0F1011" stroke-width="1.014"/>
<path d="M507 334V15C507 9 502 3 496 3L229 1C222 1 217 6 217 12V15M493 47L507 46" stroke="#0F1011" stroke-width="1.014"/>
<path d="M276 58V57C275.853 56.1326 275.899 55.2436 276.134 54.3959C276.369 53.5482 276.788 52.7626 277.36 52.0947C277.933 51.4268 278.645 50.8929 279.447 50.5309C280.249 50.1689 281.12 49.9877 282 50C283.724 50 285.377 50.6848 286.596 51.9038C287.815 53.1228 288.5 54.7761 288.5 56.5C288.5 58.2239 287.815 59.8772 286.596 61.0962C285.377 62.3152 283.724 63 282 63H281" stroke="#0F1011" stroke-width="1.014"/>
<path d="M274 57L276 58L278 56" stroke="#0F1011" stroke-width="1.014"/>
<path d="M119.529 227.166L119.646 227.5H120H187.505L188.495 333.5H66.492L64.5081 210.5H113.646L119.529 227.166Z" stroke="#0F1011"/>
<g opacity="0.5">
<mask id="mask4_1_8" style="mask-type:luminance" maskUnits="userSpaceOnUse" x="73" y="217" width="36" height="3">
<path d="M74 218H108V219H74V218Z" stroke="#A9A9A9" stroke-width="1.014"/>
</mask>
<g mask="url(#mask4_1_8)">
<path d="M74 219H108" stroke="#0F1011" stroke-width="1.014"/>
</g>
</g>
<g opacity="0.5">
<mask id="mask5_1_8" style="mask-type:luminance" maskUnits="userSpaceOnUse" x="73" y="223" width="22" height="3">
<path d="M74 224H94V225H74V224Z" stroke="#A9A9A9" stroke-width="1.014"/>
</mask>
<g mask="url(#mask5_1_8)">
<path d="M74 224H93" stroke="#0F1011" stroke-width="1.014"/>
</g>
</g>
<path d="M578 154L614 190" stroke="#0F1011" stroke-width="1.014"/>
<path d="M237 116C237 117.061 236.579 118.078 235.828 118.828C235.078 119.579 234.061 120 233 120C231.939 120 230.922 119.579 230.172 118.828C229.421 118.078 229 117.061 229 116C229.227 115.12 229.746 114.343 230.473 113.798C231.201 113.253 232.092 112.971 233 113C233.908 112.971 234.799 113.253 235.527 113.798C236.254 114.343 236.773 115.12 237 116ZM264 118C264.029 118.908 263.747 119.799 263.202 120.527C262.657 121.254 261.88 121.773 261 122C259.939 122 258.922 121.579 258.172 120.828C257.421 120.078 257 119.061 257 118C257 116 259 114 261 114C261.88 114.227 262.657 114.746 263.202 115.474C263.747 116.201 264.029 117.092 264 118ZM437 118C437.029 118.908 436.747 119.799 436.202 120.527C435.657 121.254 434.88 121.773 434 122C432.939 122 431.922 121.579 431.172 120.828C430.421 120.078 430 119.061 430 118C430 116.939 430.421 115.922 431.172 115.172C431.922 114.421 432.939 114 434 114C434.88 114.227 435.657 114.746 436.202 115.474C436.747 116.201 437.029 117.092 437 118ZM411 120C411 121.061 410.579 122.078 409.828 122.828C409.078 123.579 408.061 124 407 124C406.12 123.773 405.343 123.254 404.798 122.526C404.253 121.799 403.971 120.908 404 120C403.971 119.092 404.253 118.201 404.798 117.474C405.343 116.746 406.12 116.227 407 116C410 116 411 118 411 120ZM380 118C380 119.061 379.579 120.078 378.828 120.828C378.078 121.579 377.061 122 376 122C374.939 122 373.922 121.579 373.172 120.828C372.421 120.078 372 119.061 372 118C372 116 374 114 376 114C377.061 114 378.078 114.421 378.828 115.172C379.579 115.922 380 116.939 380 118ZM351 118C351 119.061 350.579 120.078 349.828 120.828C349.078 121.579 348.061 122 347 122C345.939 122 344.922 121.579 344.172 120.828C343.421 120.078 343 119.061 343 118C343 116.939 343.421 115.922 344.172 115.172C344.922 114.421 345.939 114 347 114C349 114 351 116 351 118ZM323 119C323 120.061 322.579 121.078 321.828 121.828C321.078 122.579 320.061 123 319 123C318.12 122.773 317.343 122.254 316.798 121.526C316.253 120.799 315.971 119.908 316 119C316 117 317 116 319 116C319.908 115.971 320.799 116.253 321.526 116.798C322.254 117.343 322.773 118.12 323 119ZM292 119C292 120.061 291.579 121.078 290.828 121.828C290.078 122.579 289.061 123 288 123C287.12 122.773 286.343 122.254 285.798 121.526C285.253 120.799 284.971 119.908 285 119C285.168 118.269 285.539 117.6 286.069 117.069C286.6 116.539 287.269 116.168 288 116C288.908 115.971 289.799 116.253 290.526 116.798C291.254 117.343 291.773 118.12 292 119ZM236 142C236 143.061 235.579 144.078 234.828 144.828C234.078 145.579 233.061 146 232 146C230 146 228 144 228 142C228.227 141.12 228.746 140.343 229.473 139.798C230.201 139.253 231.092 138.971 232 139C232.908 138.971 233.799 139.253 234.527 139.798C235.254 140.343 235.773 141.12 236 142ZM264 142C264.029 142.908 263.747 143.799 263.202 144.527C262.657 145.254 261.88 145.773 261 146C259 146 257 144 257 142C257.227 141.12 257.746 140.343 258.474 139.798C259.201 139.253 260.092 138.971 261 139C261.731 139.168 262.4 139.539 262.931 140.069C263.461 140.6 263.832 141.269 264 142ZM439 142C439 144 438 146 436 146C434.939 146 433.922 145.579 433.172 144.828C432.421 144.078 432 143.061 432 142C432.227 141.12 432.746 140.343 433.474 139.798C434.201 139.253 435.092 138.971 436 139C438 139 439 140 439 142ZM408 142C408.029 142.908 407.747 143.799 407.202 144.527C406.657 145.254 405.88 145.773 405 146C403 146 401 144 401 142C401.227 141.12 401.746 140.343 402.474 139.798C403.201 139.253 404.092 138.971 405 139C405.731 139.168 406.4 139.539 406.931 140.069C407.461 140.6 407.832 141.269 408 142ZM379 142C379 143.061 378.579 144.078 377.828 144.828C377.078 145.579 376.061 146 375 146C373 146 371 144 371 142C371.227 141.12 371.746 140.343 372.474 139.798C373.201 139.253 374.092 138.971 375 139C375.908 138.971 376.799 139.253 377.526 139.798C378.254 140.343 378.773 141.12 379 142ZM351 142C351 144 349 146 347 146C345.939 146 344.922 145.579 344.172 144.828C343.421 144.078 343 143.061 343 142C343.227 141.12 343.746 140.343 344.474 139.798C345.201 139.253 346.092 138.971 347 139C349 139 351 140 351 142ZM322 142C322 144 320 146 318 146C317.12 145.773 316.343 145.254 315.798 144.527C315.253 143.799 314.971 142.908 315 142C315.168 141.269 315.539 140.6 316.069 140.069C316.6 139.539 317.269 139.168 318 139C320 139 322 140 322 142ZM293 141C293.029 141.908 292.747 142.799 292.202 143.527C291.657 144.254 290.88 144.773 290 145C288.939 145 287.922 144.579 287.172 143.828C286.421 143.078 286 142.061 286 141C286 139.939 286.421 138.922 287.172 138.172C287.922 137.421 288.939 137 290 137C290.88 137.227 291.657 137.746 292.202 138.473C292.747 139.201 293.029 140.092 293 141ZM237 167C237 168.061 236.579 169.078 235.828 169.828C235.078 170.579 234.061 171 233 171C231.939 171 230.922 170.579 230.172 169.828C229.421 169.078 229 168.061 229 167C229.227 166.12 229.746 165.343 230.473 164.798C231.201 164.253 232.092 163.971 233 164C233.908 163.971 234.799 164.253 235.527 164.798C236.254 165.343 236.773 166.12 237 167ZM266 166C266 167.061 265.579 168.078 264.828 168.828C264.078 169.579 263.061 170 262 170C260.939 170 259.922 169.579 259.172 168.828C258.421 168.078 258 167.061 258 166C258.227 165.12 258.746 164.343 259.474 163.798C260.201 163.253 261.092 162.971 262 163C262.908 162.971 263.799 163.253 264.526 163.798C265.254 164.343 265.773 165.12 266 166ZM437 167C436.832 167.731 436.461 168.4 435.931 168.931C435.4 169.461 434.731 169.832 434 170C433.092 170.029 432.201 169.747 431.474 169.202C430.746 168.657 430.227 167.88 430 167C430 165.939 430.421 164.922 431.172 164.172C431.922 163.421 432.939 163 434 163C434.88 163.227 435.657 163.746 436.202 164.473C436.747 165.201 437.029 166.092 437 167ZM408 165C408.029 165.908 407.747 166.799 407.202 167.527C406.657 168.254 405.88 168.773 405 169C403 169 401 168 401 165C401.227 164.12 401.746 163.343 402.474 162.798C403.201 162.253 404.092 161.971 405 162C405.731 162.168 406.4 162.539 406.931 163.069C407.461 163.6 407.832 164.269 408 165ZM380 167C379.773 167.88 379.254 168.657 378.526 169.202C377.799 169.747 376.908 170.029 376 170C375.092 170.029 374.201 169.747 373.474 169.202C372.746 168.657 372.227 167.88 372 167C372 164 374 163 376 163C377.061 163 378.078 163.421 378.828 164.172C379.579 164.922 380 165.939 380 167ZM351 167C350.773 167.88 350.254 168.657 349.526 169.202C348.799 169.747 347.908 170.029 347 170C346.092 170.029 345.201 169.747 344.474 169.202C343.746 168.657 343.227 167.88 343 167C343 165.939 343.421 164.922 344.172 164.172C344.922 163.421 345.939 163 347 163C349 163 351 164 351 167ZM322 167C321.773 167.88 321.254 168.657 320.526 169.202C319.799 169.747 318.908 170.029 318 170C317.269 169.832 316.6 169.461 316.069 168.931C315.539 168.4 315.168 167.731 315 167C314.971 166.092 315.253 165.201 315.798 164.473C316.343 163.746 317.12 163.227 318 163C320 163 322 164 322 167ZM293 167C292.832 167.731 292.461 168.4 291.931 168.931C291.4 169.461 290.731 169.832 290 170C289.092 170.029 288.201 169.747 287.474 169.202C286.746 168.657 286.227 167.88 286 167C286 165.939 286.421 164.922 287.172 164.172C287.922 163.421 288.939 163 290 163C290.88 163.227 291.657 163.746 292.202 164.473C292.747 165.201 293.029 166.092 293 167ZM236 191C236 192.061 235.579 193.078 234.828 193.828C234.078 194.579 233.061 195 232 195C230 195 228 193 228 191C228 189.939 228.421 188.922 229.172 188.172C229.922 187.421 230.939 187 232 187C233.061 187 234.078 187.421 234.828 188.172C235.579 188.922 236 189.939 236 191ZM264 191C264.029 191.908 263.747 192.799 263.202 193.527C262.657 194.254 261.88 194.773 261 195C259 195 257 193 257 191C257 189.939 257.421 188.922 258.172 188.172C258.922 187.421 259.939 187 261 187C261.88 187.227 262.657 187.746 263.202 188.473C263.747 189.201 264.029 190.092 264 191ZM437 191C437.029 191.908 436.747 192.799 436.202 193.527C435.657 194.254 434.88 194.773 434 195C432.939 195 431.922 194.579 431.172 193.828C430.421 193.078 430 192.061 430 191C430 189.939 430.421 188.922 431.172 188.172C431.922 187.421 432.939 187 434 187C434.88 187.227 435.657 187.746 436.202 188.473C436.747 189.201 437.029 190.092 437 191ZM526 214C526 215.061 525.579 216.078 524.828 216.828C524.078 217.579 523.061 218 522 218C520.939 218 519.922 217.579 519.172 216.828C518.421 216.078 518 215.061 518 214C518 212.939 518.421 211.922 519.172 211.172C519.922 210.421 520.939 210 522 210C523.061 210 524.078 210.421 524.828 211.172C525.579 211.922 526 212.939 526 214ZM410 192C410 193.061 409.579 194.078 408.828 194.828C408.078 195.579 407.061 196 406 196C404.939 196 403.922 195.579 403.172 194.828C402.421 194.078 402 193.061 402 192C402 190.939 402.421 189.922 403.172 189.172C403.922 188.421 404.939 188 406 188C408 188 410 190 410 192ZM380 191C380 192.061 379.579 193.078 378.828 193.828C378.078 194.579 377.061 195 376 195C374 195 372 193 372 191C372 189.939 372.421 188.922 373.172 188.172C373.922 187.421 374.939 187 376 187C377.061 187 378.078 187.421 378.828 188.172C379.579 188.922 380 189.939 380 191ZM352 191C352 192.061 351.579 193.078 350.828 193.828C350.078 194.579 349.061 195 348 195C346 195 344 193 344 191C344 189.939 344.421 188.922 345.172 188.172C345.922 187.421 346.939 187 348 187C349.061 187 350.078 187.421 350.828 188.172C351.579 188.922 352 189.939 352 191ZM322 191C322 193 320 195 318 195C317.12 194.773 316.343 194.254 315.798 193.527C315.253 192.799 314.971 191.908 315 191C314.971 190.092 315.253 189.201 315.798 188.473C316.343 187.746 317.12 187.227 318 187C320 187 322 189 322 191ZM293 191C293.029 191.908 292.747 192.799 292.202 193.527C291.657 194.254 290.88 194.773 290 195C288.939 195 287.922 194.579 287.172 193.828C286.421 193.078 286 192.061 286 191C286 189.939 286.421 188.922 287.172 188.172C287.922 187.421 288.939 187 290 187C290.88 187.227 291.657 187.746 292.202 188.473C292.747 189.201 293.029 190.092 293 191ZM237 216C237 217.061 236.579 218.078 235.828 218.828C235.078 219.579 234.061 220 233 220C231.939 220 230.922 219.579 230.172 218.828C229.421 218.078 229 217.061 229 216C229 214.939 229.421 213.922 230.172 213.172C230.922 212.421 231.939 212 233 212C234.061 212 235.078 212.421 235.828 213.172C236.579 213.922 237 214.939 237 216ZM266 215C266 216.061 265.579 217.078 264.828 217.828C264.078 218.579 263.061 219 262 219C260.939 219 259.922 218.579 259.172 217.828C258.421 217.078 258 216.061 258 215C258 213.939 258.421 212.922 259.172 212.172C259.922 211.421 260.939 211 262 211C263.061 211 264.078 211.421 264.828 212.172C265.579 212.922 266 213.939 266 215ZM436 215C436 216.061 435.579 217.078 434.828 217.828C434.078 218.579 433.061 219 432 219C430.939 219 429.922 218.579 429.172 217.828C428.421 217.078 428 216.061 428 215C428 213.939 428.421 212.922 429.172 212.172C429.922 211.421 430.939 211 432 211C434 211 436 213 436 215ZM407 215C407.029 215.908 406.747 216.799 406.202 217.527C405.657 218.254 404.88 218.773 404 219C402.939 219 401.922 218.579 401.172 217.828C400.421 217.078 400 216.061 400 215C400 213 402 211 404 211C404.88 211.227 405.657 211.746 406.202 212.473C406.747 213.201 407.029 214.092 407 215ZM380 215C380 216.061 379.579 217.078 378.828 217.828C378.078 218.579 377.061 219 376 219C374.939 219 373.922 218.579 373.172 217.828C372.421 217.078 372 216.061 372 215C372 213 374 211 376 211C377.061 211 378.078 211.421 378.828 212.172C379.579 212.922 380 213.939 380 215ZM350 215C350 216.061 349.579 217.078 348.828 217.828C348.078 218.579 347.061 219 346 219C344.939 219 343.922 218.579 343.172 217.828C342.421 217.078 342 216.061 342 215C342 213.939 342.421 212.922 343.172 212.172C343.922 211.421 344.939 211 346 211C348 211 350 213 350 215ZM322 215C322 216.061 321.579 217.078 320.828 217.828C320.078 218.579 319.061 219 318 219C317.12 218.773 316.343 218.254 315.798 217.527C315.253 216.799 314.971 215.908 315 215C314.971 214.092 315.253 213.201 315.798 212.473C316.343 211.746 317.12 211.227 318 211C320 211 322 213 322 215ZM293 215C293.029 215.908 292.747 216.799 292.202 217.527C291.657 218.254 290.88 218.773 290 219C288.939 219 287.922 218.579 287.172 217.828C286.421 217.078 286 216.061 286 215C286 213.939 286.421 212.922 287.172 212.172C287.922 211.421 288.939 211 290 211C290.88 211.227 291.657 211.746 292.202 212.473C292.747 213.201 293.029 214.092 293 215ZM234 239C234 240.061 233.579 241.078 232.828 241.828C232.078 242.579 231.061 243 230 243C228 243 226 241 226 239C226.227 238.12 226.746 237.343 227.473 236.798C228.201 236.253 229.092 235.971 230 236C230.908 235.971 231.799 236.253 232.527 236.798C233.254 237.343 233.773 238.12 234 239ZM264 239C264.029 239.908 263.747 240.799 263.202 241.527C262.657 242.254 261.88 242.773 261 243C259 243 257 241 257 239C257.227 238.12 257.746 237.343 258.474 236.798C259.201 236.253 260.092 235.971 261 236C261.731 236.168 262.4 236.539 262.931 237.069C263.461 237.6 263.832 238.269 264 239ZM437 239C436.654 239.625 436.147 240.146 435.532 240.509C434.916 240.872 434.215 241.064 433.5 241.064C432.785 241.064 432.084 240.872 431.469 240.509C430.853 240.146 430.346 239.625 430 239C430.227 238.12 430.746 237.343 431.474 236.798C432.201 236.253 433.092 235.971 434 236C434.731 236.168 435.4 236.539 435.931 237.069C436.461 237.6 436.832 238.269 437 239ZM408 239C408.029 239.908 407.747 240.799 407.202 241.527C406.657 242.254 405.88 242.773 405 243C403 243 401 241 401 239C401.227 238.12 401.746 237.343 402.474 236.798C403.201 236.253 404.092 235.971 405 236C405.731 236.168 406.4 236.539 406.931 237.069C407.461 237.6 407.832 238.269 408 239ZM381 238C381 239.061 380.579 240.078 379.828 240.828C379.078 241.579 378.061 242 377 242C375 242 373 241 373 238C373.227 237.12 373.746 236.343 374.474 235.798C375.201 235.253 376.092 234.971 377 235C377.908 234.971 378.799 235.253 379.526 235.798C380.254 236.343 380.773 237.12 381 238ZM351 239C351 241 349 243 347 243C345.939 243 344.922 242.579 344.172 241.828C343.421 241.078 343 240.061 343 239C343.227 238.12 343.746 237.343 344.474 236.798C345.201 236.253 346.092 235.971 347 236C349 236 351 237 351 239ZM322 239C322 241 320 243 318 243C317.375 242.654 316.854 242.147 316.491 241.532C316.128 240.916 315.936 240.215 315.936 239.5C315.936 238.785 316.128 238.084 316.491 237.468C316.854 236.853 317.375 236.346 318 236C320 236 322 237 322 239ZM289 243C289 244.061 288.579 245.078 287.828 245.828C287.078 246.579 286.061 247 285 247C283.939 247 282.922 246.579 282.172 245.828C281.421 245.078 281 244.061 281 243C281 241.939 281.421 240.922 282.172 240.172C282.922 239.421 283.939 239 285 239C286.061 239 287.078 239.421 287.828 240.172C288.579 240.922 289 241.939 289 243ZM236 264C235.773 264.88 235.254 265.657 234.527 266.202C233.799 266.747 232.908 267.029 232 267C231.391 267.337 230.705 267.509 230.009 267.5C229.313 267.49 228.632 267.299 228.032 266.946C227.432 266.592 226.936 266.088 226.59 265.484C226.245 264.88 226.064 264.196 226.064 263.5C226.064 262.804 226.245 262.12 226.59 261.516C226.936 260.912 227.432 260.408 228.032 260.054C228.632 259.701 229.313 259.51 230.009 259.5C230.705 259.491 231.391 259.663 232 260C233.061 260 234.078 260.421 234.828 261.172C235.579 261.922 236 262.939 236 264ZM263 262C263 265 261 266 259 266C257.939 266 256.922 265.579 256.172 264.828C255.421 264.078 255 263.061 255 262C255.227 261.12 255.746 260.343 256.474 259.798C257.201 259.253 258.092 258.971 259 259C261 259 263 260 263 262ZM437 264C436.832 264.731 436.461 265.4 435.931 265.931C435.4 266.461 434.731 266.832 434 267C433.092 267.029 432.201 266.747 431.474 266.202C430.746 265.657 430.227 264.88 430 264C430 262.939 430.421 261.922 431.172 261.172C431.922 260.421 432.939 260 434 260C434.88 260.227 435.657 260.746 436.202 261.474C436.747 262.201 437.029 263.092 437 264ZM407 264C407.029 264.908 406.747 265.799 406.202 266.526C405.657 267.254 404.88 267.773 404 268C402 268 400 266 400 264C400 262.939 400.421 261.922 401.172 261.172C401.922 260.421 402.939 260 404 260C404.88 260.227 405.657 260.746 406.202 261.474C406.747 262.201 407.029 263.092 407 264ZM380 264C379.773 264.88 379.254 265.657 378.526 266.202C377.799 266.747 376.908 267.029 376 267C375.391 267.337 374.705 267.509 374.009 267.5C373.313 267.49 372.632 267.299 372.032 266.946C371.432 266.592 370.936 266.088 370.59 265.484C370.245 264.88 370.064 264.196 370.064 263.5C370.064 262.804 370.245 262.12 370.59 261.516C370.936 260.912 371.432 260.408 372.032 260.054C372.632 259.701 373.313 259.51 374.009 259.5C374.705 259.491 375.391 259.663 376 260C377.061 260 378.078 260.421 378.828 261.172C379.579 261.922 380 262.939 380 264ZM351 264C351 266 349 267 347 267C346.092 267.029 345.201 266.747 344.474 266.202C343.746 265.657 343.227 264.88 343 264C343 262.939 343.421 261.922 344.172 261.172C344.922 260.421 345.939 260 347 260C349 260 351 261 351 264ZM322 264C322 266 320 268 318 268C317.12 267.773 316.343 267.254 315.798 266.526C315.253 265.799 314.971 264.908 315 264C314.971 263.092 315.253 262.201 315.798 261.474C316.343 260.746 317.12 260.227 318 260C320 260 322 262 322 264ZM293 264C292.832 264.731 292.461 265.4 291.931 265.931C291.4 266.461 290.731 266.832 290 267C289.092 267.029 288.201 266.747 287.474 266.202C286.746 265.657 286.227 264.88 286 264C286 262.939 286.421 261.922 287.172 261.172C287.922 260.421 288.939 260 290 260C290.88 260.227 291.657 260.746 292.202 261.474C292.747 262.201 293.029 263.092 293 264ZM236 288C236 289.061 235.579 290.078 234.828 290.828C234.078 291.579 233.061 292 232 292C230.939 292 229.922 291.579 229.172 290.828C228.421 290.078 228 289.061 228 288C228 286 230 284 232 284C233.061 284 234.078 284.421 234.828 285.172C235.579 285.922 236 286.939 236 288ZM169 218C169 219.061 168.579 220.078 167.828 220.828C167.078 221.579 166.061 222 165 222C164.12 221.773 163.343 221.254 162.798 220.527C162.253 219.799 161.971 218.908 162 218C162.168 217.269 162.539 216.6 163.069 216.069C163.6 215.539 164.269 215.168 165 215C167 215 169 216 169 218ZM184 191C184 192.061 183.579 193.078 182.828 193.828C182.078 194.579 181.061 195 180 195C179.12 194.773 178.343 194.254 177.798 193.527C177.253 192.799 176.971 191.908 177 191C177.168 190.269 177.539 189.6 178.069 189.069C178.6 188.539 179.269 188.168 180 188C183 188 184 189 184 191ZM264 288C264.029 288.908 263.747 289.799 263.202 290.526C262.657 291.254 261.88 291.773 261 292C259.939 292 258.922 291.579 258.172 290.828C257.421 290.078 257 289.061 257 288C257 286 259 284 261 284C261.88 284.227 262.657 284.746 263.202 285.474C263.747 286.201 264.029 287.092 264 288ZM434 289C434 290.061 433.579 291.078 432.828 291.828C432.078 292.579 431.061 293 430 293C428.939 293 427.922 292.579 427.172 291.828C426.421 291.078 426 290.061 426 289C426 287.939 426.421 286.922 427.172 286.172C427.922 285.421 428.939 285 430 285C432 285 434 287 434 289ZM408 288C408.029 288.908 407.747 289.799 407.202 290.526C406.657 291.254 405.88 291.773 405 292C403.939 292 402.922 291.579 402.172 290.828C401.421 290.078 401 289.061 401 288C401 286 403 284 405 284C405.88 284.227 406.657 284.746 407.202 285.474C407.747 286.201 408.029 287.092 408 288ZM380 289C380 290.061 379.579 291.078 378.828 291.828C378.078 292.579 377.061 293 376 293C374.939 293 373.922 292.579 373.172 291.828C372.421 291.078 372 290.061 372 289C372 287 374 285 376 285C377.061 285 378.078 285.421 378.828 286.172C379.579 286.922 380 287.939 380 289ZM351 288C351 289.061 350.579 290.078 349.828 290.828C349.078 291.579 348.061 292 347 292C345.939 292 344.922 291.579 344.172 290.828C343.421 290.078 343 289.061 343 288C343 286.939 343.421 285.922 344.172 285.172C344.922 284.421 345.939 284 347 284C349 284 351 286 351 288ZM322 288C322 289.061 321.579 290.078 320.828 290.828C320.078 291.579 319.061 292 318 292C316.939 292 315.922 291.579 315.172 290.828C314.421 290.078 314 289.061 314 288C314 286.939 314.421 285.922 315.172 285.172C315.922 284.421 316.939 284 318 284C320 284 322 286 322 288ZM293 286C293.029 286.908 292.747 287.799 292.202 288.526C291.657 289.254 290.88 289.773 290 290C288.939 290 287.922 289.579 287.172 288.828C286.421 288.078 286 287.061 286 286C286 284.939 286.421 283.922 287.172 283.172C287.922 282.421 288.939 282 290 282C290.88 282.227 291.657 282.746 292.202 283.474C292.747 284.201 293.029 285.092 293 286Z" fill="#020202"/>
<path d="M260 118C261 123 265 127 269 130C274.786 134.861 281.639 138.288 289 140M290 167C303.311 165.469 315.858 159.981 326.019 151.246C336.18 142.511 343.488 130.931 347 118M375 143C378 151 381 159 386 165C391 172 398 177 406 178C416 178 426 172 434 166M346 215C352.536 216.732 359.243 217.738 366 218C371 219 376 219 381 217C393 214 401 203 406 191M348 166C347 169 348 173 350 176C352 181 356 186 360 189C365 192 371 193 376 191M232 142C232 142 224 188 261 191" stroke="#00C6B6" stroke-width="1.014"/>
<path d="M348 191C348 203 349 215 354 225C356 229 358 233 362 235C367 238 373 237 378 237M347 265C351 268 356 271 362 272C368 272 374 269 377 263M290 264C289 273 289 283 296 290C302 295 310 296 318 295C328 294 338 292 348 287M408 121C409 123 409 126 411 128C413 130 416 130 419 130L425 126L432 119M232 214C235 219 241 222 246 222C268 220 269 188 262 166M290 191C290 191 335 200 318 142M434 239C434 239 415 275 434 264" stroke="#00C6B6" stroke-width="1.014"/>
<path d="M0 334H695" stroke="#0F1011" stroke-width="1.014"/>
<path d="M432 216C445 234 469 246 492 244C510 242 515 231 522 214M166 219C170 228 179 235 189 239C202 244 216 247 230 247C235 248 239 247 243 246C249 245 254 242 259 238" stroke="#00C6B6" stroke-width="1.014"/>
<path d="M73 210V202L181 203V227M82 195V185L189 186" stroke="#0F1011" stroke-width="1.014"/>
<path d="M80 202V195L184 196V227" stroke="#0F1011" stroke-width="1.014"/>
<path d="M181 191C197 191 205 191 213 189C237 183 257 156 261 142M291 232C311 228 301 266 304 279" stroke="#00C6B6" stroke-width="1.014"/>
<path d="M381 146V148L380 156C380 172 350 175 353 145C355 133 368 131 372 133C376 136 378 143 381 146Z" fill="#F7B37F"/>
<path d="M361 165L360 173L373 172L372 165H361Z" fill="#F7B37F"/>
<path d="M348 147C346 142 346 137 348 132H352L355 130C357.155 127.8 359.497 125.793 362 124L366 122L367 123H369L377 122L380 124V126L381 127C381.649 126.963 382.293 127.138 382.834 127.499C383.375 127.86 383.784 128.387 384 129L383 134C379.273 140.398 374.145 145.869 368 150C367 151 365 152 366 154L369 155C370 157 369 158 368 159C365 162 359 166 355 163C351 159 349 152 348 147Z" fill="#E7655B"/>
<path d="M347 327L353 279C355 269 357 258 360 251C361 257 364 263 366 267C370 279 372 320 372 327L382 328C382 317 386 289 384 249C384 233 379 223 381 192C437 160 428 140 438 128C440 126 439 125 438 124V121C437 120 435 121 437 118C437 115 436 114 434 116L429 118C424 119 428 126 425 132C417 148 402 158 386 167C370 176 355 164 341 179C332 188 314 217 302 226L294 228C291 230 295 230 295 232C292 243 298 247 308 233L346 200C344 203 339 229 338 241C335 265 338 299 337 327H347Z" fill="#F7B37F"/>
<path d="M397 161L385 167C370 176 355 164 341 178C336 182 331 191 325 199C327.258 203.258 329.938 207.278 333 211H334L346 200L339 234L345 236C358 237 371 238 383 237C382 227 380 214 381 192L403 178L397 161Z" fill="white"/>
<path d="M348 190C346 193 342 217 339 233" stroke="#C0BEBF" stroke-width="1.014"/>
<path d="M350 315C350 309 351 287 353 279C355 269 357 258 360 251L364 268C368 279 369 303 369 314L384 315C385.283 289.004 384.949 262.954 383 237C368.265 237.915 353.474 236.906 339 234C338.604 236.324 338.271 238.658 338 241C335 261 336 297 335 317L350 315Z" fill="#4B4C4B"/>
<path d="M368 150L375 144C378 142 380 139 381 136" stroke="#B93535" stroke-width="1.014"/>
<path d="M367 242H378L377 252L374 254M343 250L344 240C346.288 240.599 348.636 240.935 351 241L352 246" stroke="#2D2D2D" stroke-width="1.014"/>
<path d="M360 333L358 329L355 327H337V333H360ZM395 333L393 330L390 328L387 327H374H372V333H395Z" fill="white"/>
<path d="M351 325C350.536 325.952 350.2 326.96 350 328M353 326V328M385 326C385.074 326.665 385.074 327.335 385 328M387 326V329" stroke="#0F1011" stroke-width="1.014"/>
<path d="M302 279H306L307 286L303 287L302 279ZM286 230H292V234H285L286 230Z" fill="#BDBEBD"/>
</g>
<defs>
<clipPath id="clip0_1_8">
<rect width="695" height="335" fill="white"/>
</clipPath>
</defs>
</svg>
