<svg xmlns="http://www.w3.org/2000/svg" xmlns:xlink="http://www.w3.org/1999/xlink" width="695" height="335">
  <defs>
    <path id="a" d="M2 1h76v4H2z"/>
    <path id="c" d="M0 1h77v4H0z"/>
    <path id="e" d="M1 2h70v3H1z"/>
    <path id="g" d="M1 2h31v2H1z"/>
    <path id="i" d="M1 0h34v1H1z"/>
    <path id="k" d="M1 1h20v1H1z"/>
  </defs>
  <g fill="none" fill-rule="evenodd">
    <path fill="#F1F1F1" fill-rule="nonzero" d="M509 156l69-2 36 36-2 144H508z"/>
    <path fill="#FFF" fill-rule="nonzero" d="M578 154l8 32 28 4zm14 70h-83v-22l84-2z"/>
    <g opacity=".5" transform="translate(509 235)">
      <mask id="b" fill="#fff">
        <use xlink:href="#a"/>
      </mask>
      <path stroke="#A9A9A9" stroke-width="1.014" d="M2 4h4l22-2c7 0 13 2 20 1l11-2 18 2" mask="url(#b)"/>
    </g>
    <g opacity=".5" transform="translate(509 245)">
      <mask id="d" fill="#fff">
        <use xlink:href="#c"/>
      </mask>
      <path stroke="#A9A9A9" stroke-width="1.014" d="M1 3h14c20 3 41-2 61-1" mask="url(#d)"/>
    </g>
    <path stroke="#A9A9A9" stroke-width="1.014" d="M509 258h77" opacity=".5"/>
    <g opacity=".5" transform="translate(509 265)">
      <mask id="f" fill="#fff">
        <use xlink:href="#e"/>
      </mask>
      <path stroke="#A9A9A9" stroke-width="1.014" d="M2 5l36-3h10l10 2 12-1" mask="url(#f)"/>
    </g>
    <g opacity=".5" transform="translate(507 275)">
      <mask id="h" fill="#fff">
        <use xlink:href="#g"/>
      </mask>
      <path stroke="#A9A9A9" stroke-width="1.014" d="M2 3l15-1 15 2" mask="url(#h)"/>
    </g>
    <path fill="#E7655B" fill-rule="nonzero" d="M217 57a7 7 0 1 1-14 0 7 7 0 0 1 14 0"/>
    <path fill="#F4BF12" fill-rule="nonzero" d="M240 57a7 7 0 0 1-7 7 7 7 0 1 1 0-13 7 7 0 0 1 7 6"/>
    <path fill="#00C6B6" fill-rule="nonzero" d="M261 57a7 7 0 1 1-14 0 7 7 0 0 1 14 0"/>
    <path stroke="#D8DBDC" stroke-width="1.014" d="M454 65l-148-1c-3 0-5-3-5-6l1-7a5 5 0 0 1 5-5l146-1a5 5 0 0 1 5 5l1 9a5 5 0 0 1-5 6z"/>
    <path stroke="#D8DBDC" stroke-width="1.014" d="M478 334V45c0-7-5-12-12-12l-267-3c-6 0-12 5-11 12l1 292m-1-255l290-3"/>
    <path stroke="#D8DBDC" stroke-width="1.014" d="M493 334V30c0-7-6-12-12-12l-267-3c-6 0-12 6-12 12v3m276 31h15"/>
    <path stroke="#D8DBDC" stroke-width="1.014" d="M507 334V15c0-6-5-12-11-12L229 1c-7 0-12 5-12 11v3m276 32l14-1"/>
    <path stroke="#D8DBDC" stroke-width="1.014" d="M276 58v-1a6 6 0 0 1 6-7 6 6 0 1 1 0 13h-1"/>
    <path stroke="#D8DBDC" stroke-width="1.014" d="M274 57l2 1 2-2"/>
    <path fill="#F1F1F1" fill-rule="nonzero" d="M188 227h-68l-6-17H64l2 124h123z"/>
    <g opacity=".5" transform="translate(73 218)">
      <mask id="j" fill="#fff">
        <use xlink:href="#i"/>
      </mask>
      <path stroke="#A9A9A9" stroke-width="1.014" d="M1 1h34" mask="url(#j)"/>
    </g>
    <g opacity=".5" transform="translate(73 223)">
      <mask id="l" fill="#fff">
        <use xlink:href="#k"/>
      </mask>
      <path stroke="#A9A9A9" stroke-width="1.014" d="M1 1h19" mask="url(#l)"/>
    </g>
    <path stroke="#D8DBDC" stroke-width="1.014" d="M578 154l36 36"/>
    <path fill="#F1F1F1" fill-rule="nonzero" d="M454 305l-239-4-2-201 241 3z"/>
    <path fill="#BDBEBD" fill-rule="nonzero" d="M237 116a4 4 0 0 1-4 4 4 4 0 0 1-4-4 4 4 0 0 1 4-3 4 4 0 0 1 4 3m27 2a4 4 0 0 1-3 4 4 4 0 0 1-4-4c0-2 2-4 4-4a4 4 0 0 1 3 4m173 0a4 4 0 0 1-3 4 4 4 0 0 1-4-4 4 4 0 0 1 4-4 4 4 0 0 1 3 4m-26 2a4 4 0 0 1-4 4 4 4 0 0 1-3-4 4 4 0 0 1 3-4c3 0 4 2 4 4m-31-2a4 4 0 0 1-4 4 4 4 0 0 1-4-4c0-2 2-4 4-4a4 4 0 0 1 4 4m-29 0a4 4 0 0 1-4 4 4 4 0 0 1-4-4 4 4 0 0 1 4-4c2 0 4 2 4 4m-28 1a4 4 0 0 1-4 4 4 4 0 0 1-3-4c0-2 1-3 3-3a4 4 0 0 1 4 3m-31 0a4 4 0 0 1-4 4 4 4 0 0 1-3-4 4 4 0 0 1 3-3 4 4 0 0 1 4 3m-56 23a4 4 0 0 1-4 4c-2 0-4-2-4-4a4 4 0 0 1 4-3 4 4 0 0 1 4 3m28 0a4 4 0 0 1-3 4c-2 0-4-2-4-4a4 4 0 0 1 4-3 4 4 0 0 1 3 3m175 0c0 2-1 4-3 4a4 4 0 0 1-4-4 4 4 0 0 1 4-3c2 0 3 1 3 3m-31 0a4 4 0 0 1-3 4c-2 0-4-2-4-4a4 4 0 0 1 4-3 4 4 0 0 1 3 3m-29 0a4 4 0 0 1-4 4c-2 0-4-2-4-4a4 4 0 0 1 4-3 4 4 0 0 1 4 3m-28 0c0 2-2 4-4 4a4 4 0 0 1-4-4 4 4 0 0 1 4-3c2 0 4 1 4 3m-29 0c0 2-2 4-4 4a4 4 0 0 1-3-4 4 4 0 0 1 3-3c2 0 4 1 4 3m-29-1a4 4 0 0 1-3 4 4 4 0 0 1-4-4 4 4 0 0 1 4-4 4 4 0 0 1 3 4m-56 26a4 4 0 0 1-4 4 4 4 0 0 1-4-4 4 4 0 0 1 4-3 4 4 0 0 1 4 3m29-1a4 4 0 0 1-4 4 4 4 0 0 1-4-4 4 4 0 0 1 4-3 4 4 0 0 1 4 3m171 1a4 4 0 0 1-3 3 4 4 0 0 1-4-3 4 4 0 0 1 4-4 4 4 0 0 1 3 4m-29-2a4 4 0 0 1-3 4c-2 0-4-1-4-4a4 4 0 0 1 4-3 4 4 0 0 1 3 3m-28 2a4 4 0 0 1-4 3 4 4 0 0 1-4-3c0-3 2-4 4-4a4 4 0 0 1 4 4m-29 0a4 4 0 0 1-4 3 4 4 0 0 1-4-3 4 4 0 0 1 4-4c2 0 4 1 4 4m-29 0a4 4 0 0 1-4 3 4 4 0 0 1-3-3 4 4 0 0 1 3-4c2 0 4 1 4 4m-29 0a4 4 0 0 1-3 3 4 4 0 0 1-4-3 4 4 0 0 1 4-4 4 4 0 0 1 3 4m-57 24a4 4 0 0 1-4 4c-2 0-4-2-4-4a4 4 0 0 1 4-4 4 4 0 0 1 4 4m28 0a4 4 0 0 1-3 4c-2 0-4-2-4-4a4 4 0 0 1 4-4 4 4 0 0 1 3 4m173 0a4 4 0 0 1-3 4 4 4 0 0 1-4-4 4 4 0 0 1 4-4 4 4 0 0 1 3 4m89 23a4 4 0 0 1-4 4 4 4 0 0 1-4-4 4 4 0 0 1 4-4 4 4 0 0 1 4 4m-116-22a4 4 0 0 1-4 4 4 4 0 0 1-4-4 4 4 0 0 1 4-4c2 0 4 2 4 4m-30-1a4 4 0 0 1-4 4c-2 0-4-2-4-4a4 4 0 0 1 4-4 4 4 0 0 1 4 4m-28 0a4 4 0 0 1-4 4c-2 0-4-2-4-4a4 4 0 0 1 4-4 4 4 0 0 1 4 4m-30 0c0 2-2 4-4 4a4 4 0 0 1-3-4 4 4 0 0 1 3-4c2 0 4 2 4 4m-29 0a4 4 0 0 1-3 4 4 4 0 0 1-4-4 4 4 0 0 1 4-4 4 4 0 0 1 3 4m-56 25a4 4 0 0 1-4 4 4 4 0 0 1 0-8 4 4 0 0 1 4 4m29-1a4 4 0 0 1-4 4 4 4 0 0 1-4-4 4 4 0 0 1 4-4 4 4 0 0 1 4 4m170 0a4 4 0 0 1-4 4 4 4 0 0 1-4-4 4 4 0 0 1 4-4c2 0 4 2 4 4m-29 0a4 4 0 0 1-3 4 4 4 0 0 1-4-4c0-2 2-4 4-4a4 4 0 0 1 3 4m-27 0a4 4 0 0 1-4 4 4 4 0 0 1-4-4c0-2 2-4 4-4a4 4 0 0 1 4 4m-30 0a4 4 0 0 1-4 4 4 4 0 0 1-4-4 4 4 0 0 1 4-4c2 0 4 2 4 4m-28 0a4 4 0 0 1-4 4 4 4 0 0 1-3-4 4 4 0 0 1 3-4c2 0 4 2 4 4m-29 0a4 4 0 0 1-3 4 4 4 0 0 1-4-4 4 4 0 0 1 4-4 4 4 0 0 1 3 4m-59 24a4 4 0 0 1-4 4c-2 0-4-2-4-4a4 4 0 0 1 4-3 4 4 0 0 1 4 3m30 0a4 4 0 0 1-3 4c-2 0-4-2-4-4a4 4 0 0 1 4-3 4 4 0 0 1 3 3m173 0a4 4 0 0 1-7 0 4 4 0 0 1 4-3 4 4 0 0 1 3 3m-29 0a4 4 0 0 1-3 4c-2 0-4-2-4-4a4 4 0 0 1 4-3 4 4 0 0 1 3 3m-27-1a4 4 0 0 1-4 4c-2 0-4-1-4-4a4 4 0 0 1 4-3 4 4 0 0 1 4 3m-30 1c0 2-2 4-4 4a4 4 0 0 1-4-4 4 4 0 0 1 4-3c2 0 4 1 4 3m-29 0c0 2-2 4-4 4a4 4 0 0 1 0-7c2 0 4 1 4 3m-33 4a4 4 0 0 1-4 4 4 4 0 1 1 0-8 4 4 0 0 1 4 4m-53 21a4 4 0 0 1-4 3 4 4 0 1 1 0-7 4 4 0 0 1 4 4m27-2c0 3-2 4-4 4a4 4 0 0 1-4-4 4 4 0 0 1 4-3c2 0 4 1 4 3m174 2a4 4 0 0 1-3 3 4 4 0 0 1-4-3 4 4 0 0 1 4-4 4 4 0 0 1 3 4m-30 0a4 4 0 0 1-3 4c-2 0-4-2-4-4a4 4 0 0 1 4-4 4 4 0 0 1 3 4m-27 0a4 4 0 0 1-4 3 4 4 0 1 1 0-7 4 4 0 0 1 4 4m-29 0c0 2-2 3-4 3a4 4 0 0 1-4-3 4 4 0 0 1 4-4c2 0 4 1 4 4m-29 0c0 2-2 4-4 4a4 4 0 0 1-3-4 4 4 0 0 1 3-4c2 0 4 2 4 4m-29 0a4 4 0 0 1-3 3 4 4 0 0 1-4-3 4 4 0 0 1 4-4 4 4 0 0 1 3 4m-57 24a4 4 0 0 1-4 4 4 4 0 0 1-4-4c0-2 2-4 4-4a4 4 0 0 1 4 4m-67-70a4 4 0 0 1-4 4 4 4 0 0 1-3-4 4 4 0 0 1 3-3c2 0 4 1 4 3m15-27a4 4 0 0 1-4 4 4 4 0 0 1-3-4 4 4 0 0 1 3-3c3 0 4 1 4 3m80 97a4 4 0 0 1-3 4 4 4 0 0 1-4-4c0-2 2-4 4-4a4 4 0 0 1 3 4m170 1a4 4 0 0 1-4 4 4 4 0 0 1-4-4 4 4 0 0 1 4-4c2 0 4 2 4 4m-26-1a4 4 0 0 1-3 4 4 4 0 0 1-4-4c0-2 2-4 4-4a4 4 0 0 1 3 4m-28 1a4 4 0 0 1-4 4 4 4 0 0 1-4-4c0-2 2-4 4-4a4 4 0 0 1 4 4m-29-1a4 4 0 0 1-4 4 4 4 0 0 1-4-4 4 4 0 0 1 4-4c2 0 4 2 4 4m-29 0a4 4 0 0 1-4 4 4 4 0 0 1 0-8c2 0 4 2 4 4m-29-2a4 4 0 0 1-3 4 4 4 0 0 1-4-4 4 4 0 0 1 4-4 4 4 0 0 1 3 4"/>
    <path stroke="#00C6B6" stroke-width="1.014" d="M260 118c1 5 5 9 9 12a48 48 0 0 0 20 10m1 27a67 67 0 0 0 57-49m28 25c3 8 6 16 11 22 5 7 12 12 20 13 10 0 20-6 28-12m-88 49a92 92 0 0 0 20 3c5 1 10 1 15-1 12-3 20-14 25-26m-58-25c-1 3 0 7 2 10 2 5 6 10 10 13 5 3 11 4 16 2m-144-49s-8 46 29 49"/>
    <path stroke="#00C6B6" stroke-width="1.014" d="M348 191c0 12 1 24 6 34 2 4 4 8 8 10 5 3 11 2 16 2m-31 28c4 3 9 6 15 7 6 0 12-3 15-9m-87 1c-1 9-1 19 6 26 6 5 14 6 22 5 10-1 20-3 30-8m60-166c1 2 1 5 3 7s5 2 8 2l6-4 7-7m-200 95c3 5 9 8 14 8 22-2 23-34 16-56m28 25s45 9 28-49m116 97s-19 36 0 25"/>
    <path stroke="#D8DBDC" stroke-width="1.014" d="M0 334h695"/>
    <path stroke="#00C6B6" stroke-width="1.014" d="M432 216c13 18 37 30 60 28 18-2 23-13 30-30m-356 5c4 9 13 16 23 20 13 5 27 8 41 8 5 1 9 0 13-1 6-1 11-4 16-8"/>
    <path stroke="#D8DBDC" stroke-width="1.014" d="M73 210v-8l108 1v24m-99-32v-10l107 1"/>
    <path stroke="#D8DBDC" stroke-width="1.014" d="M80 202v-7l104 1v31"/>
    <path stroke="#00C6B6" stroke-width="1.014" d="M181 191c16 0 24 0 32-2 24-6 44-33 48-47m30 90c20-4 10 34 13 47"/>
    <path fill="#F7B37F" fill-rule="nonzero" d="M381 146v2l-1 8c0 16-30 19-27-11 2-12 15-14 19-12 4 3 6 10 9 13"/>
    <path fill="#F7B37F" fill-rule="nonzero" d="M361 165l-1 8 13-1-1-7z"/>
    <path fill="#E7655B" fill-rule="nonzero" d="M348 147c-2-5-2-10 0-15h4l3-2a53 53 0 0 1 7-6l4-2 1 1h2l8-1 3 2v2l1 1a3 3 0 0 1 3 2l-1 5a49 49 0 0 1-15 16c-1 1-3 2-2 4l3 1c1 2 0 3-1 4-3 3-9 7-13 4-4-4-6-11-7-16"/>
    <path fill="#F7B37F" fill-rule="nonzero" d="M347 327l6-48c2-10 4-21 7-28 1 6 4 12 6 16 4 12 6 53 6 60l10 1c0-11 4-39 2-79 0-16-5-26-3-57 56-32 47-52 57-64 2-2 1-3 0-4v-3c-1-1-3 0-1-3 0-3-1-4-3-2l-5 2c-5 1-1 8-4 14-8 16-23 26-39 35s-31-3-45 12c-9 9-27 38-39 47l-8 2c-3 2 1 2 1 4-3 11 3 15 13 1l38-33c-2 3-7 29-8 41-3 24 0 58-1 86h10z"/>
    <path fill="#FFF" fill-rule="nonzero" d="M397 161l-12 6c-15 9-30-3-44 11-5 4-10 13-16 21a72 72 0 0 0 8 12h1l12-11-7 34 6 2c13 1 26 2 38 1-1-10-3-23-2-45l22-14-6-17"/>
    <path stroke="#C0BEBF" stroke-width="1.014" d="M348 190c-2 3-6 27-9 43"/>
    <path fill="#4B4C4B" fill-rule="nonzero" d="M350 315c0-6 1-28 3-36 2-10 4-21 7-28l4 17c4 11 5 35 5 46l15 1a628 628 0 0 0-1-78 170 170 0 0 1-44-3 132 132 0 0 0-1 7c-3 20-2 56-3 76l15-2z"/>
    <path stroke="#B93535" stroke-width="1.014" d="M368 150l7-6c3-2 5-5 6-8"/>
    <path stroke="#2D2D2D" stroke-width="1.014" d="M367 242h11l-1 10-3 2m-31-4l1-10a31 31 0 0 0 7 1l1 5"/>
    <path fill="#E2E6E6" fill-rule="nonzero" d="M360 333l-2-4-3-2h-18v6h23zm35 0l-2-3-3-2-3-1h-13-2v6h23z"/>
    <path stroke="#A9A9A9" stroke-width="1.014" d="M351 325a12 12 0 0 0-1 3m3-2v2m32-2a9 9 0 0 1 0 2m2-2v3"/>
    <path fill="#BDBEBD" fill-rule="nonzero" d="M302 279h4l1 7-4 1zm-16-49h6v4h-7z"/>
  </g>
</svg>
