<?xml version="1.0" encoding="utf-8"?>
<!-- Generator: Adobe Illustrator 25.4.1, SVG Export Plug-In . SVG Version: 6.00 Build 0)  -->
<svg version="1.0" id="Layer_1" xmlns="http://www.w3.org/2000/svg" xmlns:xlink="http://www.w3.org/1999/xlink" x="0px" y="0px"
	 viewBox="0 0 104.7 104.7" style="enable-background:new 0 0 104.7 104.7;" xml:space="preserve">
<style type="text/css">
	.st0{fill:#4284F4;stroke:#4284F4;}
	.st1{fill:#4284F4;stroke:#4284F4;stroke-width:2;stroke-linejoin:round;}
	.st2{fill:#4284F4;stroke:#4284F4;stroke-width:2;stroke-linejoin:bevel;}
</style>
<g id="Group_92" transform="translate(-1206.561 -3613.762)">
	<path id="Path_1045" class="st1" d="M1275.7,3672.2L1275.7,3672.2L1275.7,3672.2L1275.7,3672.2z"/>
	<path id="Path_1050" class="st1" d="M1296.7,3666.3c-0.3-0.2-0.7-0.4-1-0.5c0-0.2,0-0.3,0-0.5c0-0.5,0-1,0-1.5s0-1,0-1.5
		c-0.1-1-0.1-2.1-0.3-3.1c-0.1-1-0.3-2.1-0.5-3.1c-0.1-0.5-0.2-1-0.4-1.5l-0.2-0.8l-0.2-0.7c0.2-0.1,0.4-0.3,0.6-0.4
		c0.6-0.5,1.1-1.1,1.4-1.8c0.2-0.7,0.4-1.4,0.4-2.2l0,0c-0.1-0.6-0.3-1.1-0.7-1.6l0,0c0,0,0,0,0,0l0,0c0-0.2-0.3-0.1-0.2-0.3
		c0-0.2-0.1-0.3-0.2-0.3l0,0c-0.1-0.1-0.3-0.3-0.5-0.4l0,0c0-0.1,0-0.1-0.1-0.1h0c0-0.2-0.2-0.3-0.3-0.4l-0.1,0c0,0-0.1,0-0.1,0l0,0
		c-0.1,0.1-0.1,0-0.1-0.1l0,0c-0.2-0.1-0.4-0.3-0.6-0.4l0,0c-0.3-0.2-0.7-0.3-1.1-0.4c0,0,0,0,0,0c0,0,0,0,0,0l0,0l0,0l-0.1-0.1
		c-0.3,0-0.6-0.1-0.9-0.1v0c0,0,0,0,0,0l-0.2,0l0,0c0,0-0.1,0.1-0.1,0c-0.3-0.1-0.7-0.1-1-0.1c-1-1.7-2.3-3.4-3.6-4.8
		c-1.1-1.2-2.3-2.2-3.6-3.2c-1.3-1-2.7-1.8-4.1-2.5c-2.1-1.1-4.7-1.8-6.3-2.5c-1.9-0.7-3.9-1.2-5.9-1.5c-0.8-0.2-1.7-0.2-2.5-0.3
		c-0.8-0.1-1.7-0.2-2.5-0.2c-4.6-0.3-9.3,0.1-13.8,1.1c-3.3,0.7-6.4,1.9-9.4,3.5c-1.5,0.8-2.9,1.8-4.2,2.9c-1.3,1.1-2.5,2.4-3.5,3.7
		c-1.2,1.6-2.3,3.2-3.2,4.9c-1,1.7-1.8,3.4-2.6,5.2c-0.4,0.9-0.8,1.8-1.1,2.8c-0.2,0.5-0.3,0.9-0.4,1.4s-0.3,0.9-0.4,1.4
		c-0.2,1-0.5,1.9-0.6,2.9c-0.1,0.5-0.2,1-0.2,1.5l-0.1,1.5c-0.1,0.7-0.1,1.4-0.1,2.1c-0.2,0-0.4,0-0.5,0c-0.6,0-0.8,0.1-0.7,0.4
		s-0.3,0.6,0.6,0.8c0.1,0,0.4,0,0.3,0.1c-0.2,0.4,0.1,0.5,0.4,0.6c0.2,4.6,1.2,9.2,3,13.4c-0.1,0-0.1,0.1-0.2,0.1
		c-0.7,0.4-1.3,1.1-1.6,2c-0.1,0.3-0.1,0.6-0.1,0.8c-0.1,0.3-0.2,0.6-0.2,0.9c0.1,0.6,0.2,1.2,0.3,1.8l0,0c0,0,0.1,0,0,0l0,0
		c0.2,0.4,0.4,0.8,0.7,1.1c0.5,0.6,1.2,1.2,1.9,1.5c0.8,0.4,1.7,0.5,2.5,0.4h0c0.1,0,0.2,0,0.4,0c0.4,0,0.7,0,1.1-0.2
		c0.1,0,0.1-0.1,0.2-0.1c0.2,0.3,0.4,0.5,0.7,0.8c1.9,2.2,4.1,4.2,6.4,6c2.7,1.9,5.6,3.6,8.7,4.8h0l0.3,0.1l0,0
		c4.7,2,9.7,3.1,14.9,3.3c1.9,0,2.3-0.2,2.2-0.5c-0.1-0.2,0.5-0.6-1-0.7c0.2-0.1,0.3-0.2,0.5-0.2c0.2,0,0.4,0,0.6,0.2
		c0.2,0.1,0.4,0.1,0.7-0.2c0.3-0.3,0.7-0.7,1.1-1c1.1,0,2.1-0.2,3.2-0.4h0c4.3-1.1,8.4-2.9,12.1-5.4c4.1-2.8,7.5-6.4,10.1-10.5
		c0.4,0,0.8,0,1.2,0c0.5,0,0.6-0.2,0.6-0.5s0.2-0.7-0.6-0.7c-0.1,0-0.3,0-0.3-0.1c0.1-0.1,0.1-0.2,0-0.4c0.1-0.2,0.2-0.4,0.3-0.7
		c2.3-4.6,3.7-9.6,4.1-14.7l0.5-0.1C1297.2,3667,1297.4,3666.7,1296.7,3666.3z M1289.9,3666c-3.8,0.2-7.6,0.3-11.4,0.3
		c-0.8,0-1.6-0.1-2.4-0.1c0-0.6,0-1.2,0.1-1.8l0,0c0,0,0,0,0,0l0-0.5v0c0-0.1,0-0.2,0-0.3c0.1-0.8,0.1-1.7,0.1-2.5
		c0-0.4,0-0.8,0-1.2c0-0.3,0-0.7,0-1c-0.1-0.5-0.1-1.1-0.1-1.6l0,0l-0.1-1.3c-0.2-1.9-0.4-3.8-0.8-5.6c0-0.1,0-0.1-0.1-0.2
		c1.2,0,2.3,0,3.5,0.1c1.6,0.1,3.2,0,4.8,0.1c0.9,0,1.8-0.1,2.7,0l0,0h0.1l0,0c0.1,0,0.1,0,0.2,0c0,0.1,0.1,0.3,0.1,0.4l0,0
		c0,0,0.1,0,0,0l0,0c0.2,0.4,0.4,0.8,0.7,1.1c0.5,0.6,1.2,1.2,1.9,1.5c0.8,0.4,1.7,0.5,2.5,0.4h0c0.1,0,0.2,0,0.4,0
		c0.2,0,0.3,0,0.5,0c0.1,0.3,0.2,0.6,0.3,0.8c0.5,1.6,0.8,3.2,1.1,4.8c0.2,2,0.3,3.9,0.3,5.9l0,0.5
		C1292.6,3665.7,1291.3,3665.9,1289.9,3666L1289.9,3666z M1275.9,3669.8L1275.9,3669.8L1275.9,3669.8L1275.9,3669.8z M1275.3,3674.9
		l-0.1,0.2l0,0L1275.3,3674.9z M1273.7,3670.3c-0.2,2.3-0.4,4.6-0.7,6.9c-0.2,1.8-0.5,3.7-0.9,5.5c-0.8,0-1.5,0-2.3-0.1h0l-3.1,0.1
		l0,0c0,0,0,0-0.1,0l0,0c-0.2-0.1-0.5,0.2-0.7,0c-0.2-0.1-0.4-0.1-0.7-0.1l0,0l-1.1,0.1l0,0h0c-0.1-0.1-0.1,0-0.2,0h0
		c-0.3-0.1-0.6-0.1-0.9-0.1l-0.1,0.1l-0.2,0l0,0c-0.1,0.1-0.2,0-0.2,0l0,0l-1.4,0l0,0c-0.8,0-1.6,0-2.3,0c0,0,0,0,0,0c0,0,0,0,0,0
		l0,0h0l-0.2-0.1c-0.6,0.1-1.2,0.1-1.7,0.1l0,0c0,0,0,0,0,0l-0.4,0h0c-0.1,0-0.2,0-0.2,0c-0.7-0.1-1.3-0.1-2,0c-0.3,0-0.6,0-1,0
		c-0.3,0-0.5,0-0.8,0c-0.4,0.1-0.9,0.1-1.3,0l0,0l-1,0l-2.7,0c-0.1-0.5-0.2-1-0.3-1.5c-0.2-0.8-0.4-1.6-0.5-2.4
		c-0.3-1.5-0.5-3-0.5-4.5v0l-0.2-1.8c-0.1-0.6-0.1-1.2-0.1-1.8l0,0c0,0,0-0.1,0-0.1l0,0c0.1-0.3-0.2-0.5-0.1-0.8
		c0.1-0.2,0.1-0.5,0-0.8l0,0c-0.1-0.4-0.1-0.8-0.1-1.3l0,0l0,0c0,0,0,0,0,0c0.2,0,0.4,0.1,0.6,0.1h0l3.6,0.1h0c0,0,0.1,0,0.1,0l0,0
		c0.3,0.1,0.6-0.1,0.8,0c0.2,0.1,0.5,0.2,0.8,0.1l0,0l1.3,0l0,0l0,0c0.1,0.1,0.2,0,0.2,0h0c0.3,0.1,0.7,0.1,1.1,0.1l0.1-0.1l0.2,0h0
		c0.1-0.1,0.2,0,0.3,0v0l1.6,0.1l0,0c0.9,0.1,1.8,0.1,2.7,0c0,0,0,0,0,0c0,0,0,0,0,0l0,0h0l0.3,0.1c0.7-0.1,1.4-0.1,2,0l0,0
		c0,0,0,0,0,0l0.5,0h0c0.1,0,0.2,0,0.3,0c0.8,0.1,1.6,0.1,2.4,0.1c0.4,0,0.7,0,1.1,0c0.3,0,0.6,0,0.9,0c0.5-0.1,1-0.1,1.5,0l0,0h1.2
		c1.5,0,2.9,0,4.4-0.1C1273.9,3668.7,1273.8,3669.5,1273.7,3670.3L1273.7,3670.3z M1265.6,3682.6L1265.6,3682.6l-0.2,0
		L1265.6,3682.6z M1263.3,3682.6L1263.3,3682.6l-0.1,0L1263.3,3682.6z M1261.3,3682.6L1261.3,3682.6L1261.3,3682.6L1261.3,3682.6z
		 M1257.1,3682.7C1257.1,3682.7,1257.1,3682.7,1257.1,3682.7c-0.1,0-0.1,0-0.1-0.1L1257.1,3682.7z M1245.8,3665.1l0.1-0.8l0,0
		c0.1-0.9,0.1-1.8,0.1-2.7c0,0,0,0,0,0c0,0,0,0,0,0l0,0v0l0.1-0.3c0-0.7,0-1.3,0.1-2l0,0c0,0,0,0,0,0v-0.5v0c0-0.1,0-0.2,0-0.3
		c0.2-0.8,0.3-1.5,0.4-2.3c0-0.4,0.1-0.7,0.1-1.1c0-0.3,0.1-0.6,0.2-0.9c0-0.5,0.1-1,0.3-1.4l0,0l0.3-1.2c0.1-0.6,0.3-1.2,0.5-1.8
		c0.7-0.1,1.5,0,2.2,0c0.9,0,1.7,0,2.6,0.1c0.6-0.1,1.2,0,1.8,0.1c0.5,0.2,1.1,0.2,1.7,0.2c0.5,0,0.9,0,1.4,0c1.3,0,2.5,0.1,3.8,0.1
		c1.8,0,3.6-0.1,5.4-0.1c2.1,0,4.3-0.1,6.4,0h0.1c0.1,0.3,0.1,0.6,0.2,0.9c0.1,0.6,0.3,1.3,0.3,1.9v0c0.2,0.5,0.3,1.1,0.3,1.6
		c0.1,0.6,0.1,1.1,0.2,1.7c0.1,1.1,0.1,2.2,0.1,3.3c0.1,0.8,0.1,1.6,0,2.3c-0.2,0.7-0.2,1.4-0.2,2.1c0,0.6,0,1.2-0.1,1.7
		c0,0.2,0,0.5-0.1,0.8c-0.5,0-1,0-1.5,0h0c-1.1,0.1-2.1,0.2-3.2,0.1c-1,0-2.1,0-3.1,0c-0.7,0.1-1.5,0.1-2.2-0.1
		c-0.6-0.2-1.3-0.2-2-0.2c-0.6,0-1.1,0-1.7,0c-1.5,0-3-0.1-4.5-0.2l-6.5,0c-1.2,0-2.4,0-3.6-0.1L1245.8,3665.1z M1245.8,3664.2
		L1245.8,3664.2L1245.8,3664.2L1245.8,3664.2z M1246.1,3659.4C1246.1,3659.3,1246.1,3659.3,1246.1,3659.4L1246.1,3659.4
		C1246.1,3659.4,1246.1,3659.4,1246.1,3659.4L1246.1,3659.4z M1256.7,3648.1l0.1,0.1C1256.8,3648.2,1256.7,3648.2,1256.7,3648.1
		C1256.7,3648.1,1256.7,3648.1,1256.7,3648.1L1256.7,3648.1z M1260.9,3648.1L1260.9,3648.1L1260.9,3648.1L1260.9,3648.1z
		 M1262.7,3648.1l0.1,0l0,0L1262.7,3648.1z M1264.9,3648l0.2,0l0,0L1264.9,3648z M1261.6,3668l-0.1-0.1
		C1261.5,3668,1261.5,3668,1261.6,3668C1261.6,3668,1261.6,3668,1261.6,3668L1261.6,3668z M1256.6,3668L1256.6,3668L1256.6,3668
		L1256.6,3668z M1254.4,3668l-0.2,0l0,0L1254.4,3668z M1251.7,3668l-0.2,0l0,0L1251.7,3668z M1245.8,3669.2l0.1-0.2L1245.8,3669.2
		L1245.8,3669.2z M1276.1,3664.5C1276.2,3664.4,1276.2,3664.4,1276.1,3664.5L1276.1,3664.5
		C1276.1,3664.5,1276.1,3664.5,1276.1,3664.5L1276.1,3664.5z M1279,3648.1L1279,3648.1C1279,3648.1,1279,3648.1,1279,3648.1
		L1279,3648.1z M1295.5,3646.3l0,0.1l0,0L1295.5,3646.3z M1294.6,3645.6L1294.6,3645.6L1294.6,3645.6L1294.6,3645.6z M1293.7,3645.1
		L1293.7,3645.1L1293.7,3645.1L1293.7,3645.1z M1291.6,3644.6C1291.6,3644.6,1291.6,3644.6,1291.6,3644.6
		C1291.6,3644.6,1291.6,3644.5,1291.6,3644.6L1291.6,3644.6z M1267.3,3631.9c2.3,0.5,4.5,1.1,6.7,1.8c1,0.3,2.1,0.7,3.1,1.2
		c0.8,0.4,1.6,0.8,2.4,1.2c1.3,0.7,2.5,1.5,3.6,2.4l0,0c0.9,0.8,1.8,1.6,2.6,2.4c1.1,1.2,2.1,2.5,2.9,3.9c-0.1,0.1-0.3,0.1-0.4,0.2
		c-0.7,0.4-1.3,1.1-1.6,2c-0.1,0.3-0.1,0.6-0.1,0.8c0,0,0,0,0,0c-1.3,0-2.6,0-3.9,0.1c-0.6,0-1.3,0-1.9,0.1c-0.4,0-0.9,0.1-1.3,0h0
		l0,0c-0.1,0-0.2,0-0.2,0l0,0l-1.7,0.1c-0.9,0-1.8,0-2.6,0.1c-0.1-0.6-0.2-1.2-0.4-1.8c-0.4-1.3-0.9-2.6-1.3-3.9l0,0
		c0,0-0.1,0,0-0.1h0c-0.4-0.9-0.8-1.8-1.2-2.7c-0.9-1.7-1.9-3.3-3-4.9c-0.9-1.1-1.8-2.1-2.9-3c0.3,0,0.5,0.1,0.8,0.1h0
		C1266.8,3631.9,1267.1,3631.9,1267.3,3631.9L1267.3,3631.9z M1263.3,3631.4c0,0.1,0.1,0.2,0.2,0.3c0.2,0.4,0.5,0.8,0.9,1.2v0
		c1.1,1,2.2,2.1,3.1,3.3c2.4,3.2,4.2,6.8,5.2,10.6c0.1,0.5,0.2,0.9,0.3,1.4c-1.2,0.1-2.5,0-3.7-0.1h0l-3,0l0,0c0,0,0,0-0.1,0l0,0
		c-0.2-0.1-0.5,0.2-0.6,0c-0.2-0.1-0.4-0.2-0.7-0.1l0,0l-1.1,0.1l0,0l0,0c-0.1-0.1-0.1,0-0.2,0h0c-0.3-0.1-0.6-0.1-0.9-0.1l-0.1,0.1
		l-0.2,0l0,0c-0.1,0.1-0.1,0-0.2,0l0,0l-1.4,0l0,0c-0.8,0-1.5,0-2.3,0c0,0,0,0,0,0c0,0,0,0,0,0l0,0h0l-0.2-0.1
		c-0.6,0.1-1.1,0.1-1.7,0l0,0c0,0,0,0,0,0l-0.4,0h0c-0.1,0-0.2,0-0.2,0c-0.7-0.1-1.3-0.1-2,0c-0.3,0-0.6,0-0.9,0c-0.3,0-0.5,0-0.8,0
		c-0.4,0.1-0.8,0.1-1.3,0l0,0l-1,0h-1.7c0-0.1,0-0.1,0.1-0.2l0.4-1.2c0.2-0.5,0.3-1.2,0.5-1.6c0.1-0.3,0.3-0.6,0.4-0.8
		c0.5,0.1,1,0.1,1.5,0h0c0.1,0,0.2,0,0.4,0c0.4,0,0.7,0,1.1-0.2c0.2-0.1,0.5-0.2,0.7-0.3l0,0v0c0.1,0,0.1,0,0.1,0l0,0
		c0.3-0.1,0.5-0.3,0.8-0.5c0.6-0.5,1.1-1.1,1.4-1.8c0.2-0.7,0.4-1.4,0.4-2.2l0,0c-0.1-0.6-0.3-1.1-0.7-1.6l0,0c0,0,0,0,0,0l0,0
		c0-0.2-0.3-0.1-0.2-0.3c0-0.2-0.1-0.3-0.2-0.3l0,0c-0.1-0.1-0.3-0.3-0.5-0.4l0,0c0-0.1,0-0.1-0.1-0.1h0c0-0.2-0.2-0.3-0.3-0.4
		l-0.1,0c0,0-0.1,0-0.1,0l0,0c-0.1,0.1-0.1,0-0.1-0.1l0,0c0,0-0.1-0.1-0.1-0.1c0.2-0.2,0.3-0.5,0.5-0.7c0.5-0.6,1-1.3,1.6-1.8
		c0.9-0.9,2-1.7,3.1-2.2h0C1260.4,3631.3,1261.9,3631.3,1263.3,3631.4L1263.3,3631.4z M1251.2,3635.2L1251.2,3635.2
		C1251.2,3635.3,1251.2,3635.3,1251.2,3635.2C1251.2,3635.2,1251.2,3635.2,1251.2,3635.2L1251.2,3635.2z M1254.1,3636.2
		L1254.1,3636.2L1254.1,3636.2L1254.1,3636.2z M1255,3637.1v-0.1V3637.1L1255,3637.1z M1253.5,3643.8L1253.5,3643.8
		C1253.5,3643.8,1253.5,3643.8,1253.5,3643.8L1253.5,3643.8z M1250.2,3632.1h0.1l-0.2,0.1L1250.2,3632.1z M1243.6,3633.9l0.4-0.1
		L1243.6,3633.9L1243.6,3633.9z M1236.6,3637.4c0.2-0.1,0.3-0.2,0.5-0.2C1236.9,3637.3,1236.7,3637.4,1236.6,3637.4L1236.6,3637.4z
		 M1233.7,3640.2L1233.7,3640.2c0,0,0.1-0.1,0.1-0.2l0,0c0.7-0.5,1-1.3,1.6-1.6c0.6-0.4,1.3-0.8,1.8-1.3h0c1-0.7,2.1-1.3,3.2-1.9
		l0,0l0,0c0.2-0.1,0.5-0.2,0.7-0.3l0,0c0.9-0.3,1.9-0.7,2.9-1.1l0.1-0.1c0.2-0.1,0.4-0.2,0.6-0.2l0,0c0.2-0.1,0.5-0.2,0.7-0.2h0
		c0.8-0.2,1.5-0.4,2.3-0.6c0.8-0.2,1.5-0.4,2.3-0.5l0,0c1.8-0.3,3.6-0.6,5.4-0.7c-0.4,0.4-0.8,0.7-1.2,1.1c-0.8,0.9-1.5,1.8-2.2,2.8
		l0,0l0,0c0,0,0,0,0,0h0h0l0,0l-0.1-0.1c-0.3,0-0.6-0.1-0.9-0.1v0c0,0,0,0,0,0l-0.2,0l0,0c0,0-0.1,0.1-0.1,0c-0.3-0.1-0.7-0.1-1-0.1
		c-0.2,0-0.3,0.1-0.5,0.1c-0.1,0-0.3,0-0.4,0.1c-0.2,0.1-0.4,0.2-0.7,0.2l0,0c-0.2,0.1-0.4,0.2-0.5,0.3c-0.7,0.4-1.3,1.1-1.6,2
		c-0.1,0.3-0.1,0.6-0.1,0.8c-0.1,0.3-0.2,0.6-0.2,0.9c0.1,0.6,0.2,1.2,0.3,1.8l0,0c0,0,0.1,0,0,0l0,0c0.2,0.4,0.4,0.8,0.7,1.1
		c0.4,0.5,0.8,0.9,1.4,1.2c-0.1,0.3-0.3,0.6-0.4,0.9c-0.3,0.6-0.5,1.3-0.6,2c-0.1,0.6-0.4,1.1-0.5,1.7h-0.9c-0.5,0-0.9,0.1-1.4,0.1
		c-0.6-0.1-1.1-0.1-1.7-0.1c-1,0-2.1,0-3.1-0.1l0,0c0,0-0.1,0-0.1,0l0,0c-0.8,0-1.5,0-2.3,0c-1.5,0-2.9-0.1-4.4-0.1
		s-2.9,0.1-4.3,0.3C1229.8,3645.3,1231.6,3642.6,1233.7,3640.2L1233.7,3640.2z M1223.9,3661.8c0.1-1.1,0.3-2.2,0.4-3.3l0.4-1.6
		c0.1-0.6,0.3-1.1,0.5-1.6c0.6-2.1,1.5-4,2.6-5.9c0.5,0.4,1.1,0.6,1.7,0.6h0c1.2-0.1,2.4-0.2,3.6-0.2c3.2-0.1,6.3-0.1,9.5,0.1
		c1.1,0.1,2.3,0.1,3.4,0.1c0.1,0,0.2,0,0.2,0c-0.1,0.5-0.3,1-0.4,1.5c-0.2,1-0.5,2-0.7,3.1c0,0.7-0.2,1.5-0.4,2.2
		c-0.3,0.6-0.4,1.3-0.4,2c-0.1,0.6-0.1,1.1-0.2,1.7l-0.1,1.1c0,0.4-0.1,0.8-0.1,1.1c-0.1,0.8-0.1,1.5-0.1,2.3c0,0.3,0,0.7,0,1
		c-0.7,0-1.3-0.1-2-0.1c-2.1-0.1-4.3-0.1-6.4-0.4c-1.9-0.2-3.8-0.2-5.7-0.4c-1.1-0.1-2.2,0-3.2-0.2l0,0l-0.1,0l0,0
		c-0.9-0.1-1.7-0.2-2.5-0.3C1223.8,3663.6,1223.9,3662.7,1223.9,3661.8L1223.9,3661.8z M1234.8,3667.4L1234.8,3667.4
		C1234.8,3667.3,1234.8,3667.3,1234.8,3667.4L1234.8,3667.4z M1223.9,3667c0.1,0.1,0.3,0.1,0.5,0.1c0.5,0,1-0.1,1.5,0
		c1.6,0.1,3.2,0.2,4.8,0.2c0.8,0,1.5,0.1,2.3,0c0.5,0,1.1,0,1.6,0.1h0l0,0c0.1,0.1,0.2,0.1,0.3,0l0,0l2,0l5,0.1c0.6,0,1.3,0,1.9,0
		c0,0.2,0,0.4,0,0.5c0,1.1,0.2,2.2,0.2,3.3c0,0.3,0,0.6,0.1,1l0.1,1l0.2,1.9c0.1,1.3,0.4,2.6,0.5,3.9c0.2,1.1,0.4,2.1,0.6,3.2
		c0,0.1,0,0.2,0.1,0.3c-0.4,0-0.9,0.1-1.3,0c-0.6-0.1-1.1-0.1-1.7-0.2c-1.1,0-2.1,0-3.2-0.1l0,0c0,0-0.1,0-0.1,0l0,0
		c-0.8,0-1.5-0.1-2.3-0.1c-1.4,0-2.7-0.1-4.1-0.1c-0.1-0.2-0.2-0.4-0.4-0.7l0,0c0,0,0,0,0,0l0,0c0-0.2-0.3-0.1-0.2-0.3
		c0-0.2-0.1-0.3-0.2-0.3l0,0c-0.1-0.1-0.3-0.3-0.5-0.4l0,0c0-0.1,0-0.1-0.1-0.1h0c0-0.2-0.2-0.3-0.3-0.4l-0.1,0c0,0-0.1,0-0.1,0l0,0
		c-0.1,0.1-0.1,0-0.1-0.1v0c-0.2-0.1-0.4-0.3-0.6-0.4l0,0c-0.3-0.2-0.7-0.3-1.1-0.4l0,0c0,0,0,0,0,0l0,0l0,0l-0.1-0.1
		c-0.3,0-0.6-0.1-0.9-0.1v0c0,0,0,0,0,0l-0.2,0l0,0c0,0-0.1,0.1-0.1,0c-0.3-0.1-0.7-0.1-1-0.1l-0.1-0.1l-0.6-1.3l-0.5-1.4
		c-0.8-2.3-1.4-4.7-1.7-7.1C1224,3668.4,1223.9,3667.7,1223.9,3667L1223.9,3667z M1228.3,3679.1L1228.3,3679.1
		C1228.3,3679.2,1228.3,3679.2,1228.3,3679.1C1228.3,3679.2,1228.3,3679.1,1228.3,3679.1L1228.3,3679.1z M1230.4,3679.7
		L1230.4,3679.7L1230.4,3679.7L1230.4,3679.7z M1231.2,3680.2L1231.2,3680.2L1231.2,3680.2L1231.2,3680.2z M1232.2,3681.1v-0.1
		V3681.1L1232.2,3681.1z M1247.7,3697.9c-4.4-1.6-8.4-4-11.9-7.1c-0.4-0.4-0.8-0.7-1.2-1.1l-1.2-1.2c-0.4-0.4-0.7-0.8-1.1-1.2
		c-0.2-0.2-0.3-0.3-0.5-0.5c0.8-0.7,1.3-1.8,1.3-2.8c3.1,0,6.3,0.1,9.4,0.2c1.1,0.1,2.3,0.2,3.5,0.1c0.1,0.4,0.2,0.8,0.2,1.2
		c0.2,0.9,0.4,1.9,0.7,2.8c0.3,0.9,0.5,1.8,0.8,2.8c0.3,1,0.8,2,1.1,3.1l0,0l0,0.1l0,0c0.5,1.6,1.1,3.1,1.9,4.5
		c-0.3-0.1-0.7-0.2-1-0.2C1249.1,3698.3,1248.4,3698.1,1247.7,3697.9L1247.7,3697.9z M1248.3,3685.5
		C1248.3,3685.5,1248.3,3685.5,1248.3,3685.5L1248.3,3685.5L1248.3,3685.5z M1257.2,3700.8l-0.9-0.1c-0.3,0-0.5-0.1-0.7-0.1
		c-0.3-0.1-0.7-0.2-1-0.3c-0.4-0.1-0.7-0.3-0.9-0.6c-0.1-0.2-0.5-0.4-1.6-0.6c0-0.1,0-0.3-0.2-0.6c-0.1-0.1-0.2-0.3,0-0.3
		c0.6,0,0.2-0.8,0-1.1c-0.5-0.7-0.3-1,0-1.3c0.2-0.1,0.2-0.3,0-0.7c-0.3-0.4-0.5-0.8-0.7-1.3c-0.3-0.7-0.6-1.5-0.8-2.2
		s-0.5-1.5-0.8-2.2c-0.2-0.7-0.4-1.4-0.7-2.1c-0.2-0.5-0.3-1-0.5-1.5l0,0l0,0c0-0.1,0-0.2-0.1-0.3l0,0l-0.3-1.1c0.8-0.1,1.5,0,2.3,0
		c0.9,0,1.8,0,2.7,0.1c0.6-0.1,1.3,0,1.9,0.1c0.5,0.2,1.1,0.2,1.7,0.2c0.5,0,0.9,0,1.4,0c1.3,0,2.6,0.1,3.9,0.1
		c1.9,0,3.7-0.1,5.6-0.2c1.4-0.1,2.9-0.1,4.3-0.1c-0.1,0.2-0.1,0.5-0.2,0.7c-0.5,2.1-1.3,4.2-2.3,6.2c-0.9,1.7-1.9,3.3-3.1,4.8
		c-0.7,0.9-1.4,1.7-2.2,2.4l0,0l-0.1,0.1l0,0c-0.3,0.3-0.6,0.5-0.9,0.7c-0.1,0-0.2,0-0.4,0c-0.7,0.1-1.3,0.1-1.8,0.1
		c-0.3,0-0.7,0.1-1,0.2c-0.3,0.1-0.1,0.3,1,0.6c0.2,0,0.3,0.1,0.5,0.1c-0.5,0.3-1.1,0.5-1.6,0.8c0,0-0.1,0-0.1,0.1
		c-0.3-0.1-0.8-0.1-1.2-0.1S1257.5,3700.9,1257.2,3700.8L1257.2,3700.8z M1270.9,3692.5L1270.9,3692.5
		C1270.9,3692.5,1270.9,3692.5,1270.9,3692.5L1270.9,3692.5z M1278.2,3693.9c-3.5,2.2-7.3,3.8-11.2,4.7c0.6-0.7,1.2-1.4,1.7-2.1
		c0.5-0.7,0.9-1.4,1.3-2.1c0.2-0.4,0.6-1,0.8-1.6l0,0c0.1-0.1,0.1-0.2,0.1-0.3l0,0l0.4-1l0.4-1c0.7-1.7,1.2-3.4,1.6-5.2
		c0.1-0.3,0.2-0.6,0.2-1h0.4c1.8,0,3.7-0.1,5.5,0c1.6,0.1,3.2-0.1,4.9,0c0.9,0,1.8-0.1,2.8-0.1l0,0h0.1l0,0c0.4,0,0.7,0,1.1,0
		C1285.7,3688.1,1282.2,3691.4,1278.2,3693.9L1278.2,3693.9z M1279.8,3682.3L1279.8,3682.3
		C1279.8,3682.3,1279.8,3682.3,1279.8,3682.3L1279.8,3682.3z M1293.9,3667.8c0,0.9-0.2,1.8-0.3,2.7c-0.3,1.8-0.7,3.6-1.3,5.3v0
		c0,0.1,0,0.2-0.1,0.3v0c-0.7,2.1-1.6,4.2-2.7,6.2c-0.1-0.1-0.2-0.2-0.2-0.4c-0.1-0.2-0.2-0.3-0.6-0.2c-0.4,0.1-0.8,0.1-1.3,0.2
		c-1.4,0.1-2.7,0.1-4.1,0.2c-0.6,0-1.3,0.1-1.9,0.1c-0.5,0.1-0.9,0.1-1.4,0.1h0l0,0c-0.1,0-0.2,0-0.2,0l0,0l-1.7,0.1
		c-1.4,0.1-2.7,0.1-4.1,0.1c0.1-0.7,0.3-1.4,0.5-2v0c0.2-1.3,0.4-2.6,0.6-3.8v0c0,0,0-0.1,0-0.1l0,0c0.2-0.3-0.1-0.6,0.1-0.8
		c0.2-0.2,0.2-0.5,0.2-0.8l0,0l0.1-1.4v0v0c0.1-0.1,0.1-0.2,0-0.3v0c0.1-0.4,0.2-0.7,0.2-1.1l-0.1-0.1l0-0.2v0c-0.1-0.1,0-0.2,0-0.3
		h0l0.2-1.7l0,0c0.1-0.7,0.2-1.3,0.2-2c0.2,0,0.3,0,0.5,0c0.7,0.1,1.3,0.1,2,0.1c1.3-0.1,2.5-0.1,3.8,0l0,0c0,0,0.1,0,0.1,0l0,0
		c0.9,0,1.8,0,2.7-0.1c1.8-0.1,3.5-0.1,5.3-0.1c1.2,0,2.3-0.2,3.5-0.3C1293.9,3667.6,1293.9,3667.7,1293.9,3667.8L1293.9,3667.8z
		 M1275.6,3672.3l0.1-0.2L1275.6,3672.3L1275.6,3672.3z"/>
	<path id="Path_1053" class="st1" d="M1244,3633.9L1244,3633.9L1244,3633.9L1244,3633.9z"/>
	<path id="Path_1055" class="st1" d="M1294.6,3645.5L1294.6,3645.5L1294.6,3645.5z"/>
	<path id="Path_1057" class="st1" d="M1254.1,3636.2L1254.1,3636.2L1254.1,3636.2z"/>
	<path id="Path_1059" class="st1" d="M1231.3,3680.1L1231.3,3680.1L1231.3,3680.1z"/>
</g>
</svg>
