<?xml version="1.0" encoding="utf-8"?>
<!-- Generator: Adobe Illustrator 25.4.1, SVG Export Plug-In . SVG Version: 6.00 Build 0)  -->
<svg version="1.0" id="Layer_1" xmlns="http://www.w3.org/2000/svg" xmlns:xlink="http://www.w3.org/1999/xlink" x="0px" y="0px"
	 viewBox="0 0 104.7 104.7" style="enable-background:new 0 0 104.7 104.7;" xml:space="preserve">
<style type="text/css">
	.st0{fill:#4284F4;stroke:#4284F4;}
	.st1{fill:#4284F4;stroke:#4284F4;stroke-width:2;stroke-linejoin:round;}
	.st2{fill:#4284F4;stroke:#4284F4;stroke-width:2;stroke-linejoin:bevel;}
</style>
<g id="Group_94" transform="translate(-433.305 -3615.195)">
	<g id="Group_84" transform="translate(1554.126 3618.631)">
		<path id="Path_1041" class="st0" d="M-1046.7,89.2c-1.6,0-1.9-1-1.9-2.1c0-5.3,0-10.9,0.1-16.6c0-2.9,0.1-5.8,0.2-8.6
			c0.1-5.2,0.2-10.6,0.2-15.8c0-3.9-0.3-7.9-0.6-11.8c-0.1-1.8-0.3-3.6-0.4-5.4c-0.1-2.5-0.3-4.9-0.4-7.4l0-0.4
			c0-0.7-0.1-1.4-0.1-2.1c-0.1-1.7-0.2-3.6-0.2-5.3c0-1.5,0.2-2.9,0.6-4.4c0.3-1.3,1.8-1.3,2.8-1.4c3-0.2,6-0.2,9-0.3l1.4,0
			c0.1,0,0.3,0,0.4,0c0.6-0.1,1.1,0.1,1.6,0.4c0.3,0.3,0.5,0.7,0.5,1.5c0,0.9-0.1,1.8-0.1,2.7c-0.1,1.2-0.2,2.5-0.2,3.7
			c0,4.9,0,9.9,0,14.8c0,1.9,0,3.7,0,5.6l0.2,0l0,0.2c-0.1,1.7-0.2,3.3-0.3,5c-0.2,3.8-0.4,7.7-0.5,11.5c-0.1,4.4,0,8.9,0.2,13.4
			c0.2,3.5,0.5,7.1,0.7,10.5c0.2,2.6,0.4,5.3,0.6,7.9c0.1,1.8-0.5,2.4-2.8,2.8c-1.1,0.2-2.2,0.4-3.3,0.5c-2,0.3-4.1,0.7-6.2,1
			C-1045.8,89.2-1046.3,89.2-1046.7,89.2z M-1038.3,9.8c-2.7,0.1-5.3,0.2-7.9,0.4c-0.2,0.1-0.3,0.2-0.4,0.3c0.1,0.7,0,1.5-0.2,2.2
			c-0.2,0.6-0.3,1.3-0.3,1.9c0.3,2.1,0.3,4.3,0.4,6.4c0,1.3,0.1,2.7,0.2,4c0.1,1.7,0.3,3.4,0.5,5.1c0.3,2.5,0.5,5.2,0.6,7.8
			c0.2,5.8,0.3,12,0.2,19.1c-0.1,6.2-0.2,12.4-0.4,18.5c-0.1,3.1-0.1,6.2-0.2,9.3c0,0.5,0,0.9,0.1,1.4c0,0.2,0,0.4,0,0.6
			c0.3-0.1,0.5-0.1,0.8-0.2c0.7-0.2,1.3-0.3,2-0.4c1.9-0.3,3.8-0.6,5.7-0.8l0.2,0c1.5-0.1,1.5-0.2,1.4-1.6c-0.2-2.1-0.3-4.3-0.5-6.4
			c-0.3-3.2-0.6-6.5-0.7-9.8c-0.2-5-0.3-10.5-0.3-16.7c0-2.4,0.1-4.9,0.3-7.3c0.1-2.2,0.2-4.5,0.3-6.7c0.1-5.9,0.1-12,0.1-17.8
			c0-2.6,0-5.1,0-7.7c0-0.5,0-0.9,0-1.4l0-0.5L-1038.3,9.8z"/>
	</g>
	<g id="Group_85" transform="translate(1525.308 3638.04)">
		<path id="Path_1042" class="st0" d="M-1045.9,69.9c-1,0.1-1.8-0.6-2-1.5l0-0.1c-0.3-1.5-0.5-3-0.5-4.5c-0.1-7.9-0.2-15.9-0.2-23.7
			c-0.1-6.2-0.1-12.5-0.2-18.7c0-2-0.1-4.1-0.4-6.8c-0.1-0.8-0.2-1.7-0.5-2.5c-0.1-0.3-0.1-0.5-0.2-0.8c-0.3-1.3,0.4-2.1,2.3-2.7
			c2-0.5,4-0.8,6.1-0.8c0.7,0,1.4,0,2.1-0.1c1.1-0.1,2.2-0.1,3.3-0.3c0.3,0,0.6-0.1,0.8,0c1.2,0,1.7,0.5,1.8,1.7
			c0.2,2.1,0.2,4.1,0.3,6.6c0,3.5,0.1,7,0.1,10.4c0.1,6.2,0.1,12.6,0.3,18.9c0.1,5.7,0.4,11.3,0.8,17.1c0.1,1,0.3,2.1,0.5,3.1
			c0.1,0.4,0.2,0.7,0.2,1c0,1.8-0.9,2.5-3.1,2.7c-1.3,0.1-2.5,0.2-3.8,0.2c-1.3,0.1-2.6,0.2-4,0.3c-0.8,0.1-1.7,0.2-2.5,0.3
			l-0.5,0.1C-1045.3,69.9-1045.6,69.9-1045.9,69.9z M-1038.7,10c-2.7,0.3-5.2,0.5-7.7,0.8c-0.3,0-0.5,0.1-0.7,0.2
			c-0.1,0.1-0.1,0.3-0.1,0.6c0.1,0.2,0.1,0.5,0.2,0.7c0.3,0.9,0.4,1.8,0.5,2.8c0.2,5.3,0.4,10.5,0.6,16.3l0.1,2.9
			c0.2,6,0.4,12.1,0.5,18.2c0.1,2.8,0,5.7,0,8.4c0,1.7,0,3.3,0,5c0,0.4,0.1,0.8,0.1,1.2c0,0.1,0,0.3,0.1,0.4l11.3-1
			c-0.1-0.2-0.1-0.4-0.2-0.5c-0.1-0.4-0.3-0.8-0.3-1.2c0-0.4-0.1-0.7-0.1-1.1c-0.2-1.5-0.4-3-0.4-4.5c-0.3-9.2-0.5-19.1-0.7-30.1
			c-0.1-4.2-0.1-8.5-0.1-12.6l0-1.4c0-1.2,0-2.4,0.1-3.7c0-0.6,0-1.1,0-1.7L-1038.7,10z"/>
	</g>
	<g id="Group_86" transform="translate(1500.087 3654.283)">
		<path id="Path_1043" class="st0" d="M-1046.2,54.6c-1.5,0-1.8-0.7-1.8-1.8c0-2.1,0-4.1,0-6.2c0-5.5,0-11.1-0.1-16.7
			c0-2.3-0.2-4.5-0.4-6.7c-0.2-1.7-0.4-3.5-0.7-5.2c-0.3-1.9-0.5-3.9-0.7-5.9c0-0.9,0.2-1.9,0.5-2.7l0.1-0.2
			c0.1-0.4,0.9-0.6,1.4-0.7c0.9-0.1,1.8-0.1,2.7-0.1c1,0,2-0.1,3-0.2c1.4-0.1,2.7-0.3,4.1-0.6c0.2,0,0.4-0.1,0.7-0.1
			c1.1-0.1,2,0.7,2.1,1.7c0,0.7,0,1.4,0,2.2c0,0.4,0,0.7,0,1.1c0.1,1.9,0.1,3.8,0.2,5.7c0.1,4.5,0.3,9.1,0.5,13.6
			c0.2,3.1,0.5,6.3,0.8,9.3c0.1,1.1,0.2,2.2,0.3,3.3c0.1,1.1,0.2,2.1,0.3,3.2s0.2,2.1,0.3,3.2c0.1,1.4-0.6,1.9-2.1,2.3
			c-3.3,0.8-6.6,1.3-10,1.4l-0.4,0C-1045.8,54.6-1046,54.6-1046.2,54.6z M-1038.7,10.3c-0.6,0-1.1,0-1.7,0.1c-1.3,0.1-2.7,0.1-4,0.1
			c-1.5,0-2.3,0.1-2.7,0.4s-0.3,0.9-0.1,2.1l0.2,0.9c0.4,2.1,0.8,4.3,1,6.5c0.3,3.6,0.7,7.4,0.7,11.3c0.1,4.6,0.1,9.3,0,13.9
			c0,1.9,0,3.8,0,5.7c0,0.2,0,0.5,0,0.8l0,0.5l1.9-0.3c2.4-0.4,4.7-0.7,7-1.1c0.2-0.1,0.4-0.4,0.5-0.6c0-0.2,0-0.5,0-0.7
			c0-0.1,0-0.2,0-0.3c-0.1-1.1-0.3-2.1-0.4-3.2c-0.3-2.3-0.6-4.6-0.8-6.9c-0.2-2-0.3-4.1-0.4-6.1l0-0.2c-0.3-5-0.5-9.9-0.7-14.9
			l-0.4-7.6C-1038.7,10.5-1038.7,10.4-1038.7,10.3L-1038.7,10.3z"/>
	</g>
</g>
</svg>
