<?xml version="1.0" encoding="utf-8"?>
<!-- Generator: Adobe Illustrator 25.3.1, SVG Export Plug-In . SVG Version: 6.00 Build 0)  -->
<svg version="1.1" id="Layer_1" xmlns="http://www.w3.org/2000/svg" xmlns:xlink="http://www.w3.org/1999/xlink" x="0px" y="0px"
	 viewBox="0 0 24 24" style="enable-background:new 0 0 24 24;" xml:space="preserve">
<path style="fill:none;" d="M16.1,10.6C11.2,14.7,8,15.9,8,15.9c8.8-5.3,15.9-12.3-0.8-10.1C5.2,5.5,5,2.7,7,2.1
	C13.6,0.3,27,2.2,16.1,10.6L16.1,10.6z"/>
<path style="fill:none;" d="M5.7,6.4c0,0,4.7,5.5-2.2,16.1C5.9,16.2,6.3,11,5.7,6.4z"/>
<path style="fill:none;" d="M7.7,7.1c5.9,10.2,12.7,7,12.7,15.2C19,16.4,7.2,15.8,7.7,7.1L7.7,7.1z"/>
</svg>
