<svg width="221" height="273" viewBox="0 0 221 273" fill="none" xmlns="http://www.w3.org/2000/svg">
<path fill-rule="evenodd" clip-rule="evenodd" d="M163.385 118.954C99.3859 171.753 57.7854 186.954 57.7854 186.954C85.436 169.846 191.256 105.499 176.26 68.2396C161.769 32.2373 90.1181 60.6355 47.3671 55.2947C21.4955 52.0628 19.2327 16.1894 45.5042 8.67155C84.9674 -2.62168 206.216 -8.97317 217.114 40.5417C221.669 61.2391 203.126 86.1677 163.385 118.954Z" fill="white"/>
<path fill-rule="evenodd" clip-rule="evenodd" d="M28.7858 64.1535C28.7858 64.1535 89.586 136.154 0.385696 272.954C21.6259 161.869 27.9857 144.554 28.7858 64.1535Z" fill="white"/>
<path fill-rule="evenodd" clip-rule="evenodd" d="M55.1858 72.5535C136.654 189.98 201.123 125.04 220.386 269.753C197.423 191.126 47.9269 186.282 55.1858 72.5535Z" fill="white"/>
</svg>
