<?xml version="1.0" encoding="utf-8"?>
<!-- Generator: Adobe Illustrator 22.0.0, SVG Export Plug-In . SVG Version: 6.00 Build 0)  -->
<svg version="1.1" xmlns="http://www.w3.org/2000/svg" xmlns:xlink="http://www.w3.org/1999/xlink" x="0px" y="0px"
	 viewBox="0 0 476.2 538.6" style="enable-background:new 0 0 476.2 538.6;" xml:space="preserve">
<style type="text/css">
	.st0{fill:#0D1620;}
	.st1{fill:#293139;}
	.st2{fill:#FCDAB4;}
	.st3{clip-path:url(#SVGID_2_);}
	.st4{fill:#E4C4A1;}
	.st5{fill:none;}
	.st6{fill:#F4F4F4;}
	.st7{fill:#5F6C78;}
	.st8{fill:#665748;}
	.st9{fill:#4C4135;}
	.st10{fill:#FE4E6C;}
	.st11{fill:#FEFEFE;}
	.st12{fill:#CBCACB;}
	.st13{fill:#4A312C;}
	.st14{fill:#D6B897;}
</style>
<g id="Layer_2">
</g>
<g id="Layer_1">
	<g id="Layer_x0020_1">
		<circle class="st0" cx="239.1" cy="299.4" r="236.2"/>
		<path class="st1" d="M418.1,452.3c-0.3-6.8-18.7-28.8-22.2-32.5c-5.6-5.9-21.7-20.2-31-23.9c-1.6-2.2-13.1-7.1-16.4-9
			c-2.2-29.7-32.1-39.4-62.6-41.9l-0.2,10.9c-0.4,26.2-1.3,53.9-34.3,71.4c-59.4,15.4-57.3-57.1-58.6-87.1
			c-15,1.5-32.4,9.8-44.2,15.8c-5.8,3-11.3,7.8-14.6,12.4c-5.8,8.1-3.8,12.1-6.5,19.9c-6.5-0.1-15.8,7.3-17.1,8.1
			c-17.5,9.1-43.9,35.6-52.2,54.9c28,33.3,64.9,58.7,107.1,72.6l0.2-83.7l0.4-6.3l13.5,6.7l0.3,87.5c1.5,0.4,3.1,0.8,4.7,1.1
			c6.1,1.1,12.2,2.5,18.5,3.6c7.8,1.2,15.7,2,23.8,2.4c0.3,0,0.7,0,1,0c1.3,0.1,2.6,0.1,3.9,0.1c0.7,0,1.5,0.1,2.2,0.1
			c1.6,0,3.3,0.1,4.9,0.1c0.2,0,0.4,0,0.5,0c1.8,0,3.6,0,5.3-0.1c3.2-0.1,6.4-0.2,9.6-0.5c46.5-3.8,84.8-17.7,121.2-43.2
			C386.7,483.9,410.3,463.9,418.1,452.3z"/>
		<path class="st2" d="M192,388.4c2.7,19.3,24.1,51.8,59.3,40.9c38.7-12,33.9-63.2,34.3-89.4c-17.3,5.5-26.2,10.6-47.5,10.3
			c-16.4-0.3-32.6-3.4-45.7-10L192,388.4L192,388.4z"/>
		<g>
			<g>
				<defs>
					<path id="SVGID_1_" d="M192,388.4c2.7,19.3,24.1,51.8,59.3,40.9c38.7-12,33.9-63.2,34.3-89.4c-17.3,5.5-26.2,10.6-47.5,10.3
						c-16.4-0.3-32.6-3.4-45.7-10L192,388.4L192,388.4z"/>
				</defs>
				<clipPath id="SVGID_2_">
					<use xlink:href="#SVGID_1_"  style="overflow:visible;"/>
				</clipPath>
				<g class="st3">
					<g id="_760485312">
						<path id="_x31_" class="st4" d="M126.6,177.2C83.2,182,100,214,116,242.6c4.3,7.8,28.5,26,28.6,26
							c5.9,24.8,18.4,47.9,32.4,65.6c21.8,27.5,49.6,42,80.7,35.7c33.1-6.8,69.7-60.2,80.8-102.7c20.4-16.4,27.5-27.2,36.8-51.9
							c0-5.5,4.9-18.3,2.1-25.6c-4.8-12.2-19.4-17.7-28.6-11.1c-9.4-7.8-3.6-48.6-17.5-66.5c-2.6-3.3-9.9-9.2-14-12.4
							c-22.5-17.4-17.2-25.9-29-24.8c-7.9,0.8-15.4,2.1-24.1,2.7l-77.4,0.1c-5.9-0.5-5.7-2.8-15.7,9.8
							c-16.3,20.6-26.2,22.7-32.7,48.1C132.8,157.7,134.7,179.4,126.6,177.2L126.6,177.2z"/>
					</g>
				</g>
			</g>
		</g>
		<path class="st5" d="M192,388.4c2.7,19.3,24.1,51.8,59.3,40.9c38.7-12,33.9-63.2,34.3-89.4c-17.3,5.5-26.2,10.6-47.5,10.3
			c-16.4-0.3-32.6-3.4-45.7-10L192,388.4L192,388.4z"/>
		<path class="st2" d="M126.6,167.6c-40.5,4.5-28.7,32.7-13.9,59.6c3.2,5.7,13,14.8,21,21.9c6.4,5.7,10.8,13.2,12.9,21.4
			c5.3,20.3,18.5,39.2,30.3,54.2c21.8,27.5,49.6,42,80.7,35.7c31-6.4,63.3-52.5,78.1-94.4c1.8-5.1,12.3-17.9,16.1-21.7
			c16.6-16.3,33.6-43.3,25.5-64.2c-4.8-12.2-19.4-17.7-28.6-11.1c-9.4-7.8-3.6-48.6-17.5-66.5c-2.6-3.3-9.9-9.2-14-12.4
			c-22.5-17.4-17.2-25.9-29-24.8c-7.9,0.8-15.4,2.1-24.1,2.7l-77.4,0.1c-5.9-0.5-5.7-2.8-15.7,9.8c-16.3,20.6-26.2,22.7-32.7,48.1
			C132.8,148.1,134.7,169.8,126.6,167.6L126.6,167.6z"/>
		<path class="st6" d="M179.5,527.4l-0.3-82.9l-14-4.7l-0.2,87.6c0,3.2,2.1,6.1,5.2,7h0C174.9,535.7,179.5,532.2,179.5,527.4z"/>
		<path class="st7" d="M311.5,434.3l-0.6,5.4c11.1-3.4,24.8-11.5,32.6-16.9c6.6-4.7,17.2-14.6,20.6-22.2c1.6-3.6,1.4-1.7,0.5-4.6
			c-1.6-2.2-13.1-7.1-16.4-9c-6.5,12.8-0.6,17-24.6,37.8C317.7,429.9,312.6,431.5,311.5,434.3L311.5,434.3z"/>
		<path class="st7" d="M110.2,396.4c4,11,15.4,21.1,23.2,27c8.9,6.8,20.1,11.2,31.9,16.8l0.4-6.3c-12.8-8-24.4-18.2-31.2-30.8
			c-3-5.5-2.8-7.8-4.2-11.6c-1.1-1.8-1.1-2.7-3.2-3.1C121.1,388.6,114.3,393.3,110.2,396.4z"/>
		<path class="st8" d="M271.8,156.5c6.9-1.3,25.6-6.2,51,3.3C305.5,136.7,274.8,141.4,271.8,156.5z"/>
		<path class="st8" d="M221.4,158.6c-6.9-1.3-25.6-6.2-51,3.3C187.7,138.8,218.4,143.5,221.4,158.6z"/>
		<g id="_760491712">
			<path class="st9" d="M213.6,306.5c14.7-8.5,22.3-3.3,27.7-3.2c4.6,0.1,7.1-2.4,15.1-1.3c6.9,0.9,8.9,3,13.1,4.6
				c4.3-3.3,6.7-4.9,9.7-9.6c2.8-4.4,5.1-9.1,2-12.9l-4.6-0.2c-1,5.3-4.5,7.7-11.9,7.9c-7.2,0.2-15.2,0-22.5,0
				c-14.6,0-31.6,3-33.7-7.8c-3.3-0.7-5-0.4-7.7,0.3C197.9,292,208.1,304.4,213.6,306.5L213.6,306.5z"/>
			<path class="st10" d="M213.6,306.5c3.9,4.5,16.8,8.3,27.7,8.3c12.2,0,22.3-3.5,28.3-8.3c-4.2-1.6-6.2-3.7-13.1-4.6
				c-8-1-10.6,1.4-15.1,1.3C235.9,303.1,228.3,298,213.6,306.5z"/>
			<path class="st11" d="M276.7,283.7l-68.1,0.1c2.1,10.8,19.1,7.8,33.7,7.8c7.3,0,15.3,0.2,22.5,0
				C272.2,291.4,275.7,289,276.7,283.7L276.7,283.7z"/>
		</g>
		<path class="st12" d="M310.9,439.7l0.6-5.4c-4.7,0.4-9.3,4.4-14.4,5.9l0.1,4.2l0,0"/>
		<path class="st12" d="M179.2,440.6l-13.5-6.7l-0.5,6.3l0,0l14,4.7"/>
		<path class="st13" d="M342.7,177c0,0-3.1,27.4-4.9,46.3c-0.4,4.1,5.2,5.8,7.1,2.1c8.3-16.1,18.7-41.8,25.3-42.6
			c16.8-1.8,21.1-22.8,16.9-50.1c-5.9-38.6-27.1-73.2-58.4-96.5C276.5-2.8,208.9-9.7,143,26.9c-11.8,6.6-34.6,37.1-50.3,64.2
			c-15.2,26.2-12.5,59.2,7,82.4c3.7,4.4,7.2,8.4,10.2,11.9c0.3,0.3,0.6,0.7,0.8,1.1c10.6,16.4,2.8,20.6,8.5,36.5
			c0,0.1,0.1,0.2,0.1,0.2c1.6,4.4,8.3,2.8,7.8-1.9c-1.5-16-0.4-35.6-0.5-49.8c0-2,1.4-3.7,3.4-4.1c31.1-5.6,97.8-35.5,122.3-59.3
			c6.7-6.5,15.5-10.4,24.9-11C346.4,92.8,339.1,117.9,342.7,177L342.7,177z"/>
		<circle class="st8" cx="295.9" cy="176.5" r="8.7"/>
		<circle class="st8" cx="193.4" cy="179.6" r="8.7"/>
		<path class="st14" d="M219.5,250.1c9,1.1,34.3,4,37,1.6c3.2-3,7.4-8.6,7.4-8.6s11.2-9.2-4.2,16.1c-16.2,8.4-27.5,0.7-41-8
			C215.6,249.1,215.7,249.6,219.5,250.1L219.5,250.1z"/>
		<path class="st6" d="M310.9,439.7l-13.7,4.7l0,0c-0.8,15.1-0.1,32.2-0.1,47.5c0,4.5-0.5,20,0.5,23.3c2.1,6.5,12.7,6.4,12.5-1.4
			L310.9,439.7z"/>
	</g>
</g>
</svg>
