<svg width="512" height="512" viewBox="0 0 512 512" fill="none" xmlns="http://www.w3.org/2000/svg">
<circle cx="257" cy="256" r="170" fill="#DA1010"/>
<g opacity="0.5">
<circle cx="256.667" cy="256.667" r="63.3056" stroke="white"/>
<circle cx="256.667" cy="256.667" r="89.5278" stroke="white"/>
<circle cx="256.667" cy="256.667" r="170.667" stroke="white"/>
<line x1="257.167" y1="86" x2="257.167" y2="427.333" stroke="white"/>
<line x1="86.1576" y1="426.469" x2="426.476" y2="86.15" stroke="white"/>
<line x1="86.8647" y1="86.1576" x2="427.179" y2="426.472" stroke="white"/>
<line x1="86" y1="256.167" x2="427.333" y2="256.167" stroke="white"/>
<line x1="86" y1="192.861" x2="427.333" y2="192.861" stroke="white"/>
<line x1="86" y1="319.472" x2="427.333" y2="319.472" stroke="white"/>
<line x1="193.861" y1="86" x2="193.861" y2="427.333" stroke="white"/>
<line x1="320.472" y1="86" x2="320.472" y2="427.333" stroke="white"/>
<rect x="86.5" y="86.5" width="340.333" height="340.333" stroke="white"/>
</g>
<path d="M152.551 163.849C152.551 163.849 229.631 255.127 116.547 428.555C156.216 325.314 151.537 265.776 152.551 163.849Z" fill="white"/>
<path d="M173.746 93.5112C223.775 79.1942 377.489 71.142 391.304 133.915C397.08 160.154 373.572 191.757 323.19 233.322C308.483 245.455 294.787 256.159 282.208 265.533C338.116 298.089 379.308 303.211 395.453 424.499C377.545 363.182 298.942 337.257 243.231 292.827C210.062 314.395 190.809 322.116 189.315 319.529C188.455 318.036 209.085 304.843 235.387 286.31C204.579 259.544 182.75 225.738 186.02 174.498C216.922 219.039 245.896 242.882 271.982 259.341C311.708 228.386 348.91 192.38 339.511 169.029C321.141 123.387 230.306 159.388 176.108 152.618C143.309 148.52 140.44 103.042 173.746 93.5112Z" fill="white"/>
</svg>
