<svg width="512" height="512" xmlns="http://www.w3.org/2000/svg" clip-rule="evenodd" version="1.1" xml:space="preserve">
 <g>
  <path  d="m351.88112,223.63752c-115.78103,95.51873 -191.0402,123.01854 -191.0402,123.01854c50.02258,-30.94933 241.46005,-147.3601 214.33083,-214.76502c-26.21435,-65.13144 -155.83793,-13.7564 -233.17845,-23.41849c-46.80417,-5.84676 -50.89779,-70.74504 -3.37021,-84.34555c71.39256,-20.4305 290.7435,-31.92094 310.45811,57.65599c8.24126,37.44361 -25.30496,82.54181 -97.20008,141.85453z"/>
  <path  d="m108.37802,124.49901c0,0 109.99307,130.25468 -51.37846,377.73858c56.60729,-147.32576 49.93096,-232.28683 51.37846,-377.73858z"/>
  <path d="m156.13807,139.69539c147.38403,212.43616 264.01359,94.95327 298.86236,356.75288c-41.5427,-142.24495 -311.9945,-151.00723 -298.86236,-356.75288z"/>
 </g>
</svg>