<svg version="1.1" id="Layer_1" xmlns="http://www.w3.org/2000/svg" xmlns:xlink="http://www.w3.org/1999/xlink" x="0px" y="0px" viewBox="0 0 242 82" style="enable-background:new 0 0 242 82;" xml:space="preserve">
<style type="text/css">
    .logo-text { fill: #2f1834; }
    .inner { fill: #000000; }
    .inner-white { fill: #FFFFFF; }
    .outer-yellow { fill: #f5c577; }
    .outer-green { fill: #1aa294; }
    .outer-orange { fill: #f07a5a; }
</style>
<path id="logo-text" class="logo-text" d="M209.3,28.2c0.8,0,1.5-0.2,2.2-0.7c0.6-0.4,1.1-1,1.4-1.8c0.3-0.7,0.4-1.5,0.2-2.3
	c-0.1-0.8-0.5-1.5-1.1-2s-1.2-0.9-2-1.1s-1.5-0.1-2.3,0.2c-0.7,0.3-1.3,0.8-1.7,1.4s-0.7,1.4-0.7,2.2c0,1,0.4,2,1.1,2.8
	C207.3,27.7,208.3,28.2,209.3,28.2z M122.6,45.1c0,6.9,4.9,11.5,11.2,11.5S145,52,145,45.1v-11c0-0.9-0.4-1.8-1-2.4s-1.5-1-2.4-1
	s-1.8,0.4-2.4,1c-0.6,0.6-1,1.5-1,2.4v11.2c0,3.2-1.9,4.9-4.4,4.9c-2.4,0-4.4-1.7-4.4-4.9V34.1c0-0.9-0.4-1.8-1-2.4
	c-0.6-0.6-1.5-1-2.4-1s-1.8,0.4-2.4,1s-1,1.5-1,2.4L122.6,45.1z M151.9,55.6c-0.6-0.6-1-1.5-1-2.4v-11c0-6.9,4.9-11.5,11.2-11.5
	s11.2,4.6,11.2,11.5v11c0,0.9-0.4,1.8-1,2.4s-1.5,1-2.4,1s-1.8-0.4-2.4-1s-1-1.5-1-2.4V42c0-3.2-2-4.9-4.4-4.9s-4.4,1.7-4.4,4.9
	v11.2c0,0.9-0.4,1.8-1,2.4c-0.6,0.6-1.5,1-2.4,1C153.4,56.6,152.5,56.2,151.9,55.6z M191.2,56.5c1.7,0,3.4-0.3,5-0.9
	c1.6-0.7,3-1.6,4.2-2.9c0.6-0.6,0.9-1.4,1-2.3c0-0.4-0.1-0.9-0.3-1.3c-0.2-0.4-0.4-0.8-0.7-1.1s-0.7-0.5-1.1-0.7
	c-0.4-0.2-0.8-0.2-1.3-0.2c-1.2,0-1.9,0.6-2.6,1.3c-0.1,0.1-0.2,0.2-0.4,0.3c-1.1,0.9-2.4,1.4-3.8,1.4c-1.7-0.1-3.2-0.9-4.4-2.1
	c-1.1-1.2-1.8-2.8-1.8-4.5s0.6-3.3,1.8-4.5c1.1-1.2,2.7-2,4.4-2.1c1.4,0,2.8,0.5,3.9,1.5c0.1,0.1,0.2,0.2,0.3,0.2
	c0.7,0.6,1.4,1.2,2.6,1.2c0.4,0,0.9,0,1.3-0.2c0.4-0.1,0.8-0.4,1.1-0.7s0.6-0.7,0.7-1.1s0.3-0.8,0.3-1.3c-0.1-0.8-0.4-1.7-1-2.3
	c-1.7-2-5.1-3.8-9.2-3.7c-1.7,0-3.4,0.3-5,0.9s-3,1.6-4.2,2.8s-2.2,2.6-2.8,4.2c-0.7,1.6-1,3.3-1,5s0.3,3.4,1,5s1.6,3,2.8,4.2
	s2.7,2.1,4.2,2.8C187.8,56.2,189.4,56.5,191.2,56.5z M207,55.5c-0.6-0.6-1-1.5-1-2.4v-19c0-0.9,0.4-1.8,1-2.4s1.5-1,2.4-1
	s1.8,0.4,2.4,1c0.6,0.6,1,1.5,1,2.4v19c0,0.9-0.4,1.8-1,2.4c-0.6,0.6-1.5,1-2.4,1S207.6,56.1,207,55.5z M240.5,50.4
	c0,0.7-0.2,1.4-0.7,2l0,0c-2.1,2.6-5.4,4-9.5,4c-7.8,0-12.9-5.1-12.9-12.7S222.5,31,230.1,31c6.7,0,12,5,12,10.8v0.4
	c0,0.5,0,1-0.2,1.4s-0.4,0.8-0.7,1.2c-0.3,0.3-0.7,0.6-1.1,0.8c-0.4,0.2-0.9,0.3-1.3,0.2h-14.4c0.3,1.4,1.1,2.6,2.2,3.5
	c1.1,0.8,2.5,1.3,3.9,1.2c0.9,0,1.9-0.1,2.7-0.5c0.9-0.4,1.7-0.9,2.3-1.6c0.3-0.3,0.6-0.5,1-0.7s0.8-0.3,1.2-0.3s0.8,0,1.1,0.2
	c0.4,0.1,0.7,0.4,1,0.6c0.3,0.3,0.5,0.6,0.6,1C240.5,49.6,240.5,50,240.5,50.4z M235.7,41.1c-0.5-2.5-2.8-4.1-5.6-4.1
	c-2.9,0-5.3,1.6-5.8,4.1H235.7z M95.5,55.7c-0.6-0.6-1-1.5-1-2.4V25c0-0.9,0.4-1.8,1-2.4s1.5-1,2.4-1s1.8,0.4,2.4,1s1,1.5,1,2.4
	v28.3c0,0.9-0.4,1.8-1,2.4c-0.6,0.6-1.5,1-2.4,1S96.2,56.3,95.5,55.7z M112.7,56.5c-0.7-0.2-1.3-0.6-1.7-1.1l-7.8-9.2
	c-0.6-0.7-0.9-1.6-0.9-2.5c0-0.8,0.3-1.7,0.9-2.3l7.9-9.5c0.3-0.4,0.6-0.6,1-0.8c0.4-0.2,0.8-0.3,1.3-0.3c0.4,0,0.8,0,1.2,0.2
	c0.4,0.1,0.8,0.4,1.1,0.7c0.3,0.3,0.6,0.6,0.7,1c0.2,0.4,0.3,0.8,0.3,1.2c0,0.7-0.2,1.5-0.7,2.1l-6.2,7.4l6.4,7.7
	c0.5,0.6,0.8,1.4,0.8,2.2c0,0.7-0.2,1.4-0.6,2s-1,1-1.6,1.3C114.1,56.7,113.4,56.7,112.7,56.5z"></path>
<g id="logo-img">
	<path class="outer-yellow" d="M74.1,37.2c0.1,1.1,0.2,2.2,0.2,3.3c0,17.6-12.7,31.6-33.2,31.6c-8.3,0-15.7-2.3-21.2-6.7
		c1.2,3.7,3.3,6.9,6.2,9c7.5,5.4,17.4,7.7,26.6,6.4c9.5-1.4,16.9-7.2,21.4-15.6c1.1-2,2-4.2,2.5-6.4c1.9-7.1,0.8-14.7-2.4-21.3
		C74.3,37.4,74.2,37.3,74.1,37.2z"></path>
	<path id="purple" class="inner" d="M41,8.6c-17.5,0-30.9,18-30.9,35.6s13.5,27.9,31,27.9c20.5,0,33.2-14.1,33.2-31.6
		C74.3,22.9,58.5,8.6,41,8.6z"></path>
	<path id="white" class="inner-white" d="M57.2,56.5l-5.6,2c-1.2,0.4-2.5-0.2-2.9-1.4c0-0.1-0.1-0.2-0.1-0.2l0,0L42,40.6
		c-0.4-1.1,0-2.3,1-2.8l0,0c1.8-1.2,3.6-3.7,3.6-6.1c0-3.7-3-6.8-6.8-6.8S33,28,33,31.7c0,2.7,2.3,5.4,4.6,6.5l0,0
		c1.2,0.4,1.8,1.7,1.4,2.9l-4.8,13.5c-0.2,0.5,0.2,1,0.7,1h2.8c1.3,0,2.3,1,2.2,2.3c0,1.3-1,2.3-2.3,2.3l-6.4-0.1
		c-0.1,0-0.3,0-0.4,0c-0.3,0-0.6,0-0.9-0.1c-1.2-0.4-1.8-1.7-1.4-2.9l5.2-14.8c0.1-0.3,0-0.7-0.3-0.9c-3.1-2-5.2-5.6-5.2-9.6
		c0-6.4,5.1-11.5,11.5-11.5c6.3,0,11.5,5.1,11.5,11.5c0,3.5-1.5,6.6-4,8.7c-0.3,0.2-0.4,0.6-0.2,0.9L51.7,53c0.1,0.4,0.6,0.6,1,0.4
		l2.8-1c1.2-0.4,2.5,0.2,2.9,1.4C59,54.8,58.4,56.1,57.2,56.5z"></path>
	<path id="green" class="outer-green" d="M78.6,28.8c-2.7-16.3-13.6-28-31.2-28C31.8,0.8,17,13.8,13.9,28C19,17,29.1,8.6,41.1,8.6
		c17.5,0,33.3,14.3,33.3,31.9c0,0.3,0,0.5,0,0.8c0,0.1,0,0.2,0,0.3c0,0.2,0,0.3,0,0.5c0,0.1,0,0.3,0,0.4c0,0.1,0,0.3,0,0.4
		c0,0.2,0,0.3,0,0.5c0,0.1,0,0.2,0,0.3c0,0.2,0,0.4-0.1,0.5c0,0.1,0,0.2,0,0.3c0,0.2,0,0.4-0.1,0.6c0,0.1,0,0.1,0,0.2
		c0,0.2-0.1,0.4-0.1,0.6c0,0.1,0,0.1,0,0.2c0,0.2-0.1,0.4-0.1,0.6v0.1c0,0.2-0.1,0.4-0.1,0.7v0.1c0,0.2-0.1,0.4-0.1,0.7
		c0,0,0,0,0,0.1c-0.1,0.2-0.1,0.5-0.2,0.7l0,0c-0.1,0.2-0.1,0.5-0.2,0.7l0,0c-0.1,0.2-0.1,0.5-0.2,0.7l0,0c-0.1,0.2-0.1,0.5-0.2,0.7
		l0,0c-0.2,0.5-0.3,0.9-0.5,1.4l0,0C76.6,45.8,79.8,36.3,78.6,28.8z"></path>
	<path id="orange" class="outer-orange" d="M41.1,72.1c-17.5,0-30.9-10.4-31-27.9c0-14.3,8.8-28.8,21.6-33.8c-9.8,1-20,5.8-25.6,14.1
		c-5.4,8-7.8,18.4-4.8,27.8c1.6,5.1,4.7,9.6,8.6,13.3c10.1,9.7,26.9,11.3,39,5.8C46.5,71.8,43.9,72.1,41.1,72.1z"></path>
</g>
</svg>